<?xml version="1.0" encoding="UTF-8" standalone="no"?>
<!-- Created with Digital by H.Neemann -->
<!-- created: Fri Jul 30 18:48:41 CEST 2021 -->

<svg
   xmlns:svg="http://www.w3.org/2000/svg"
   xmlns="http://www.w3.org/2000/svg"
   width="182.7mm"
   height="242.85mm"
   viewBox="121 118 1218 1619">
<g stroke-linecap="square">
<path d="M 999,1180 L 999,1171" stroke="#000000" stroke-width="4.0" fill="none"/>
<path d="M 999,1100 L 999,1109" stroke="#000000" stroke-width="4.0" fill="none"/>
<path d="M 779,1060 L 779,1051" stroke="#000000" stroke-width="4.0" fill="none"/>
<path d="M 779,980 L 779,989" stroke="#000000" stroke-width="4.0" fill="none"/>
<path d="M 999,1560 L 999,1551" stroke="#000000" stroke-width="4.0" fill="none"/>
<path d="M 999,1480 L 999,1489" stroke="#000000" stroke-width="4.0" fill="none"/>
<path d="M 999,1680 L 999,1671" stroke="#000000" stroke-width="4.0" fill="none"/>
<path d="M 999,1600 L 999,1609" stroke="#000000" stroke-width="4.0" fill="none"/>
<path d="M 779,1460 L 779,1451" stroke="#000000" stroke-width="4.0" fill="none"/>
<path d="M 779,1380 L 779,1389" stroke="#000000" stroke-width="4.0" fill="none"/>
<path d="M 360,1280 L 420,1280 L 1060,1280 L 1060,1320 L 1000,1320" stroke="#000000" stroke-width="4.0" fill="none"/>
<path d="M 200,640 L 240,640 L 280,640" stroke="#000000" stroke-width="4.0" fill="none"/>
<path d="M 1000,640 L 1140,640 L 1140,560 L 420,560 L 360,560" stroke="#000000" stroke-width="4.0" fill="none"/>
<path d="M 1000,1540 L 1140,1540 L 1140,1640 L 1000,1640" stroke="#000000" stroke-width="4.0" fill="none"/>
<path d="M 240,320 L 240,260 L 280,260 L 294,260" stroke="#000000" stroke-width="4.0" fill="none"/>
<path d="M 420,560 L 420,520 L 460,520 L 474,520" stroke="#000000" stroke-width="4.0" fill="none"/>
<path d="M 1000,1160 L 1180,1160 L 1180,1660 L 1000,1660" stroke="#000000" stroke-width="4.0" fill="none"/>
<path d="M 773,1420 L 780,1420 L 920,1420" stroke="#000000" stroke-width="4.0" fill="none"/>
<path d="M 1000,1420 L 1100,1420 L 1100,1500 L 1000,1500" stroke="#000000" stroke-width="4.0" fill="none"/>
<path d="M 1000,1680 L 1200,1680 L 1200,1180" stroke="#000000" stroke-width="4.0" fill="none"/>
<path d="M 1000,400 L 1180,400 L 1180,240 L 420,240 L 360,240" stroke="#000000" stroke-width="4.0" fill="none"/>
<path d="M 776,1040 L 780,1040 L 920,1040" stroke="#000000" stroke-width="4.0" fill="none"/>
<path d="M 1000,1040 L 1140,1040 L 1140,1120 L 1000,1120" stroke="#000000" stroke-width="4.0" fill="none"/>
<path d="M 360,660 L 420,660 L 420,600 L 840,600 L 1120,600 L 1120,980 L 1000,980" stroke="#000000" stroke-width="4.0" fill="none"/>
<path d="M 240,1360 L 240,1300 L 280,1300 L 294,1300" stroke="#000000" stroke-width="4.0" fill="none"/>
<path d="M 1000,1560 L 1160,1560 L 1160,1060 L 1000,1060" stroke="#000000" stroke-width="4.0" fill="none"/>
<path d="M 1000,1180 L 1200,1180 L 1200,760 L 1000,760" stroke="#000000" stroke-width="4.0" fill="none"/>
<path d="M 220,680 L 220,540 L 280,540 L 294,540" stroke="#000000" stroke-width="4.0" fill="none"/>
<path d="M 200,160 L 420,160 L 460,160 L 474,160" stroke="#000000" stroke-width="4.0" fill="none"/>
<path d="M 540,800 L 1260,800" stroke="#000000" stroke-width="4.0" fill="none"/>
<path d="M 776,1440 L 780,1440 L 860,1440 L 860,1520 L 920,1520" stroke="#000000" stroke-width="4.0" fill="none"/>
<path d="M 1000,1440 L 1120,1440 L 1120,980" stroke="#000000" stroke-width="4.0" fill="none"/>
<path d="M 780,1060 L 840,1060 L 840,1140 L 920,1140" stroke="#000000" stroke-width="4.0" fill="none"/>
<path d="M 776,420 L 780,420 L 920,420" stroke="#000000" stroke-width="4.0" fill="none"/>
<path d="M 200,680 L 220,680 L 280,680" stroke="#000000" stroke-width="4.0" fill="none"/>
<path d="M 1000,680 L 1160,680 L 1160,340 L 840,340 L 360,340" stroke="#000000" stroke-width="4.0" fill="none"/>
<path d="M 776,680 L 780,680 L 840,680 L 840,600" stroke="#000000" stroke-width="4.0" fill="none"/>
<path d="M 200,940 L 240,940 L 280,940" stroke="#000000" stroke-width="4.0" fill="none"/>
<path d="M 1000,940 L 1100,940 L 1100,860 L 420,860 L 360,860" stroke="#000000" stroke-width="4.0" fill="none"/>
<path d="M 540,180 L 1260,180" stroke="#000000" stroke-width="4.0" fill="none"/>
<path d="M 420,860 L 420,820 L 460,820 L 474,820" stroke="#000000" stroke-width="4.0" fill="none"/>
<path d="M 780,1460 L 840,1460 L 840,1640 L 920,1640" stroke="#000000" stroke-width="4.0" fill="none"/>
<path d="M 1000,440 L 1200,440 L 1200,120 L 420,120 L 420,160" stroke="#000000" stroke-width="4.0" fill="none"/>
<path d="M 773,700 L 780,700 L 880,700 L 880,660 L 920,660" stroke="#000000" stroke-width="4.0" fill="none"/>
<path d="M 200,320 L 240,320 L 280,320" stroke="#000000" stroke-width="4.0" fill="none"/>
<path d="M 360,960 L 420,960 L 420,900 L 840,900 L 1080,900 L 1080,1360 L 1000,1360" stroke="#000000" stroke-width="4.0" fill="none"/>
<path d="M 1000,1600 L 1060,1600 L 1060,1480 L 1000,1480" stroke="#000000" stroke-width="4.0" fill="none"/>
<path d="M 240,640 L 240,580 L 280,580 L 294,580" stroke="#000000" stroke-width="4.0" fill="none"/>
<path d="M 560,1220 L 1260,1220" stroke="#000000" stroke-width="4.0" fill="none"/>
<path d="M 420,240 L 420,200 L 460,200 L 474,200" stroke="#000000" stroke-width="4.0" fill="none"/>
<path d="M 220,980 L 220,840 L 280,840 L 294,840" stroke="#000000" stroke-width="4.0" fill="none"/>
<path d="M 1000,1100 L 1100,1100 L 1100,1020" stroke="#000000" stroke-width="4.0" fill="none"/>
<path d="M 1000,720 L 1140,720 L 1140,640" stroke="#000000" stroke-width="4.0" fill="none"/>
<path d="M 776,720 L 780,720 L 880,720 L 880,740 L 920,740" stroke="#000000" stroke-width="4.0" fill="none"/>
<path d="M 200,1360 L 240,1360 L 280,1360" stroke="#000000" stroke-width="4.0" fill="none"/>
<path d="M 200,980 L 220,980 L 280,980" stroke="#000000" stroke-width="4.0" fill="none"/>
<path d="M 780,980 L 840,980 L 840,900" stroke="#000000" stroke-width="4.0" fill="none"/>
<path d="M 1000,1620 L 1100,1620 L 1100,1500" stroke="#000000" stroke-width="4.0" fill="none"/>
<path d="M 420,1280 L 420,1240 L 480,1240 L 494,1240" stroke="#000000" stroke-width="4.0" fill="none"/>
<path d="M 220,360 L 220,220 L 280,220 L 294,220" stroke="#000000" stroke-width="4.0" fill="none"/>
<path d="M 1000,740 L 1180,740 L 1180,400" stroke="#000000" stroke-width="4.0" fill="none"/>
<path d="M 360,1380 L 420,1380 L 420,1320 L 840,1320 L 840,1380 L 780,1380" stroke="#000000" stroke-width="4.0" fill="none"/>
<path d="M 200,360 L 220,360 L 280,360" stroke="#000000" stroke-width="4.0" fill="none"/>
<path d="M 776,1000 L 780,1000 L 860,1000 L 860,960 L 920,960" stroke="#000000" stroke-width="4.0" fill="none"/>
<path d="M 220,1400 L 220,1260 L 280,1260 L 294,1260" stroke="#000000" stroke-width="4.0" fill="none"/>
<path d="M 240,940 L 240,880 L 280,880 L 294,880" stroke="#000000" stroke-width="4.0" fill="none"/>
<path d="M 540,500 L 1260,500" stroke="#000000" stroke-width="4.0" fill="none"/>
<path d="M 200,1400 L 220,1400 L 280,1400" stroke="#000000" stroke-width="4.0" fill="none"/>
<path d="M 776,1400 L 780,1400 L 860,1400 L 860,1340 L 920,1340" stroke="#000000" stroke-width="4.0" fill="none"/>
<path d="M 1000,1400 L 1060,1400 L 1060,1320" stroke="#000000" stroke-width="4.0" fill="none"/>
<path d="M 776,380 L 780,380 L 840,380 L 840,340" stroke="#000000" stroke-width="4.0" fill="none"/>
<path d="M 1000,1020 L 1100,1020 L 1100,940" stroke="#000000" stroke-width="4.0" fill="none"/>
<path d="M 1060,1400 L 1060,1480" stroke="#000000" stroke-width="4.0" fill="none"/>
<path d="M 700,400 L 420,400 L 420,480 L 460,480 L 474,480" stroke="#000000" stroke-width="4.0" fill="none"/>
<path d="M 474,780 L 460,780 L 420,780 L 420,700 L 700,700" stroke="#000000" stroke-width="4.0" fill="none"/>
<path d="M 494,1200 L 480,1200 L 420,1200 L 420,1020 L 700,1020" stroke="#000000" stroke-width="4.0" fill="none"/>
<path d="M 1160,680 L 1160,1060" stroke="#000000" stroke-width="4.0" fill="none"/>
<path d="M 1100,1100 L 1100,1420" stroke="#000000" stroke-width="4.0" fill="none"/>
<path d="M 1200,440 L 1200,760" stroke="#000000" stroke-width="4.0" fill="none"/>
<path d="M 1140,1120 L 1140,1540" stroke="#000000" stroke-width="4.0" fill="none"/>
<path d="M 1140,720 L 1140,1040" stroke="#000000" stroke-width="4.0" fill="none"/>
<path d="M 700,1420 L 660,1420 L 660,1720 L 1260,1720" stroke="#000000" stroke-width="4.0" fill="none"/>
<path d="M 1180,740 L 1180,1160" stroke="#000000" stroke-width="4.0" fill="none"/>
<g>
<circle cx="420.0" cy="1280.0" r="4.0" stroke="#000000" stroke-width="4.0" fill="#000000" />
<circle cx="240.0" cy="640.0" r="4.0" stroke="#000000" stroke-width="4.0" fill="#000000" />
<circle cx="1140.0" cy="640.0" r="4.0" stroke="#000000" stroke-width="4.0" fill="#000000" />
<circle cx="1140.0" cy="1540.0" r="4.0" stroke="#000000" stroke-width="4.0" fill="#000000" />
<circle cx="840.0" cy="900.0" r="4.0" stroke="#000000" stroke-width="4.0" fill="#000000" />
<circle cx="1180.0" cy="1160.0" r="4.0" stroke="#000000" stroke-width="4.0" fill="#000000" />
<circle cx="1100.0" cy="1420.0" r="4.0" stroke="#000000" stroke-width="4.0" fill="#000000" />
<circle cx="1180.0" cy="400.0" r="4.0" stroke="#000000" stroke-width="4.0" fill="#000000" />
<circle cx="1140.0" cy="1040.0" r="4.0" stroke="#000000" stroke-width="4.0" fill="#000000" />
<circle cx="1200.0" cy="1180.0" r="4.0" stroke="#000000" stroke-width="4.0" fill="#000000" />
<circle cx="420.0" cy="160.0" r="4.0" stroke="#000000" stroke-width="4.0" fill="#000000" />
<circle cx="1160.0" cy="1060.0" r="4.0" stroke="#000000" stroke-width="4.0" fill="#000000" />
<circle cx="220.0" cy="680.0" r="4.0" stroke="#000000" stroke-width="4.0" fill="#000000" />
<circle cx="1160.0" cy="680.0" r="4.0" stroke="#000000" stroke-width="4.0" fill="#000000" />
<circle cx="1060.0" cy="1320.0" r="4.0" stroke="#000000" stroke-width="4.0" fill="#000000" />
<circle cx="240.0" cy="940.0" r="4.0" stroke="#000000" stroke-width="4.0" fill="#000000" />
<circle cx="1100.0" cy="940.0" r="4.0" stroke="#000000" stroke-width="4.0" fill="#000000" />
<circle cx="420.0" cy="560.0" r="4.0" stroke="#000000" stroke-width="4.0" fill="#000000" />
<circle cx="1200.0" cy="440.0" r="4.0" stroke="#000000" stroke-width="4.0" fill="#000000" />
<circle cx="240.0" cy="320.0" r="4.0" stroke="#000000" stroke-width="4.0" fill="#000000" />
<circle cx="1060.0" cy="1480.0" r="4.0" stroke="#000000" stroke-width="4.0" fill="#000000" />
<circle cx="1100.0" cy="1100.0" r="4.0" stroke="#000000" stroke-width="4.0" fill="#000000" />
<circle cx="1140.0" cy="720.0" r="4.0" stroke="#000000" stroke-width="4.0" fill="#000000" />
<circle cx="240.0" cy="1360.0" r="4.0" stroke="#000000" stroke-width="4.0" fill="#000000" />
<circle cx="840.0" cy="340.0" r="4.0" stroke="#000000" stroke-width="4.0" fill="#000000" />
<circle cx="220.0" cy="980.0" r="4.0" stroke="#000000" stroke-width="4.0" fill="#000000" />
<circle cx="1120.0" cy="980.0" r="4.0" stroke="#000000" stroke-width="4.0" fill="#000000" />
<circle cx="840.0" cy="600.0" r="4.0" stroke="#000000" stroke-width="4.0" fill="#000000" />
<circle cx="420.0" cy="860.0" r="4.0" stroke="#000000" stroke-width="4.0" fill="#000000" />
<circle cx="1100.0" cy="1500.0" r="4.0" stroke="#000000" stroke-width="4.0" fill="#000000" />
<circle cx="1140.0" cy="1120.0" r="4.0" stroke="#000000" stroke-width="4.0" fill="#000000" />
<circle cx="1180.0" cy="740.0" r="4.0" stroke="#000000" stroke-width="4.0" fill="#000000" />
<circle cx="220.0" cy="360.0" r="4.0" stroke="#000000" stroke-width="4.0" fill="#000000" />
<circle cx="420.0" cy="240.0" r="4.0" stroke="#000000" stroke-width="4.0" fill="#000000" />
<circle cx="1200.0" cy="760.0" r="4.0" stroke="#000000" stroke-width="4.0" fill="#000000" />
<circle cx="220.0" cy="1400.0" r="4.0" stroke="#000000" stroke-width="4.0" fill="#000000" />
<circle cx="1060.0" cy="1400.0" r="4.0" stroke="#000000" stroke-width="4.0" fill="#000000" />
<circle cx="1100.0" cy="1020.0" r="4.0" stroke="#000000" stroke-width="4.0" fill="#000000" />
</g>
<g>
<path d="M 169,145 L 199,145 L 199,175 L 169,175 Z" stroke="#000000" stroke-width="4.0" fill="none"/>
<circle cx="184.0" cy="160.0" r="9.0" stroke="#000000" stroke-width="4.0" fill="none" />
<text text-anchor="end" x="155.0" y="169.0" fill="#000000" style="font-size:24px"><tspan style="font-style:italic;">C<tspan style="font-size:80%;baseline-shift:sub;">0</tspan></tspan></text>
<circle cx="200.0" cy="160.0" r="2.0" stroke="#000000" stroke-width="4.0" fill="#000000" />
</g>
<g>
<path d="M 169,305 L 199,305 L 199,335 L 169,335 Z" stroke="#000000" stroke-width="4.0" fill="none"/>
<circle cx="184.0" cy="320.0" r="9.0" stroke="#000000" stroke-width="4.0" fill="none" />
<text text-anchor="end" x="155.0" y="329.0" fill="#000000" style="font-size:24px"><tspan style="font-style:italic;">A<tspan style="font-size:80%;baseline-shift:sub;">0</tspan></tspan></text>
<circle cx="200.0" cy="320.0" r="2.0" stroke="#000000" stroke-width="4.0" fill="#000000" />
</g>
<g>
<path d="M 169,345 L 199,345 L 199,375 L 169,375 Z" stroke="#000000" stroke-width="4.0" fill="none"/>
<circle cx="184.0" cy="360.0" r="9.0" stroke="#000000" stroke-width="4.0" fill="none" />
<text text-anchor="end" x="155.0" y="369.0" fill="#000000" style="font-size:24px"><tspan style="font-style:italic;">B<tspan style="font-size:80%;baseline-shift:sub;">0</tspan></tspan></text>
<circle cx="200.0" cy="360.0" r="2.0" stroke="#000000" stroke-width="4.0" fill="#000000" />
</g>
<g>
<path d="M 330,370 L 281,370 L 281,310 L 330,310 C 340,310 360,320 359,340 C 359,360 340,370 330,370 Z" stroke="#000000" stroke-width="4.0" fill="none"/>
<circle cx="280.0" cy="320.0" r="2.0" stroke="#000000" stroke-width="4.0" fill="#000000" />
<circle cx="280.0" cy="360.0" r="2.0" stroke="#000000" stroke-width="4.0" fill="#000000" />
<circle cx="360.0" cy="340.0" r="2.0" stroke="#000000" stroke-width="4.0" fill="#000000" />
</g>
<g>
<path d="M 310,270 L 290,270 C 300,254 300,226 290,210 L 310,210 C 330,210 350,220 360,240 C 350,260 330,270 310,270 Z" stroke="#000000" stroke-width="4.0" fill="none"/>
<path d="M 280,270 C 290,260 290,220 280,210" stroke="#000000" stroke-width="4.0" fill="none"/>
<circle cx="280.0" cy="220.0" r="2.0" stroke="#000000" stroke-width="4.0" fill="#000000" />
<circle cx="280.0" cy="260.0" r="2.0" stroke="#000000" stroke-width="4.0" fill="#000000" />
<circle cx="360.0" cy="240.0" r="2.0" stroke="#000000" stroke-width="4.0" fill="#000000" />
</g>
<g>
<path d="M 490,210 L 470,210 C 480,194 480,166 470,150 L 490,150 C 510,150 530,160 540,180 C 530,200 510,210 490,210 Z" stroke="#000000" stroke-width="4.0" fill="none"/>
<path d="M 460,210 C 470,200 470,160 460,150" stroke="#000000" stroke-width="4.0" fill="none"/>
<circle cx="460.0" cy="160.0" r="2.0" stroke="#000000" stroke-width="4.0" fill="#000000" />
<circle cx="460.0" cy="200.0" r="2.0" stroke="#000000" stroke-width="4.0" fill="#000000" />
<circle cx="540.0" cy="180.0" r="2.0" stroke="#000000" stroke-width="4.0" fill="#000000" />
</g>
<g>
<path d="M 750,370 L 780,370 C 770,386 770,414 780,430 L 760,430 C 730,430 710,420 700,400 C 710,380 730,370 750,370 Z" stroke="#000000" stroke-width="4.0" fill="none"/>
<circle cx="780.0" cy="420.0" r="2.0" stroke="#000000" stroke-width="4.0" fill="#000000" />
<circle cx="780.0" cy="380.0" r="2.0" stroke="#000000" stroke-width="4.0" fill="#000000" />
<circle cx="700.0" cy="400.0" r="2.0" stroke="#000000" stroke-width="4.0" fill="#000000" />
</g>
<g>
<circle cx="1276.0" cy="180.0" r="9.0" stroke="#000000" stroke-width="4.0" fill="none" />
<circle cx="1276.0" cy="180.0" r="15.0" stroke="#000000" stroke-width="4.0" fill="none" />
<text text-anchor="start" x="1305.0" y="189.0" fill="#000000" style="font-size:24px"><tspan style="font-style:italic;">S<tspan style="font-size:80%;baseline-shift:sub;">0</tspan></tspan></text>
<circle cx="1260.0" cy="180.0" r="2.0" stroke="#000000" stroke-width="4.0" fill="#000000" />
</g>
<g>
<path d="M 950,390 L 999,390 L 999,450 L 950,450 C 940,450 920,440 921,420 C 921,400 940,390 950,390 Z" stroke="#000000" stroke-width="4.0" fill="none"/>
<circle cx="1000.0" cy="440.0" r="2.0" stroke="#000000" stroke-width="4.0" fill="#000000" />
<circle cx="1000.0" cy="400.0" r="2.0" stroke="#000000" stroke-width="4.0" fill="#000000" />
<circle cx="920.0" cy="420.0" r="2.0" stroke="#000000" stroke-width="4.0" fill="#000000" />
</g>
<g>
<path d="M 490,530 L 470,530 C 480,514 480,486 470,470 L 490,470 C 510,470 530,480 540,500 C 530,520 510,530 490,530 Z" stroke="#000000" stroke-width="4.0" fill="none"/>
<path d="M 460,530 C 470,520 470,480 460,470" stroke="#000000" stroke-width="4.0" fill="none"/>
<circle cx="460.0" cy="480.0" r="2.0" stroke="#000000" stroke-width="4.0" fill="#000000" />
<circle cx="460.0" cy="520.0" r="2.0" stroke="#000000" stroke-width="4.0" fill="#000000" />
<circle cx="540.0" cy="500.0" r="2.0" stroke="#000000" stroke-width="4.0" fill="#000000" />
</g>
<g>
<path d="M 169,625 L 199,625 L 199,655 L 169,655 Z" stroke="#000000" stroke-width="4.0" fill="none"/>
<circle cx="184.0" cy="640.0" r="9.0" stroke="#000000" stroke-width="4.0" fill="none" />
<text text-anchor="end" x="155.0" y="649.0" fill="#000000" style="font-size:24px"><tspan style="font-style:italic;">A<tspan style="font-size:80%;baseline-shift:sub;">1</tspan></tspan></text>
<circle cx="200.0" cy="640.0" r="2.0" stroke="#000000" stroke-width="4.0" fill="#000000" />
</g>
<g>
<path d="M 169,665 L 199,665 L 199,695 L 169,695 Z" stroke="#000000" stroke-width="4.0" fill="none"/>
<circle cx="184.0" cy="680.0" r="9.0" stroke="#000000" stroke-width="4.0" fill="none" />
<text text-anchor="end" x="155.0" y="689.0" fill="#000000" style="font-size:24px"><tspan style="font-style:italic;">B<tspan style="font-size:80%;baseline-shift:sub;">1</tspan></tspan></text>
<circle cx="200.0" cy="680.0" r="2.0" stroke="#000000" stroke-width="4.0" fill="#000000" />
</g>
<g>
<path d="M 330,690 L 281,690 L 281,630 L 330,630 C 340,630 360,640 359,660 C 359,680 340,690 330,690 Z" stroke="#000000" stroke-width="4.0" fill="none"/>
<circle cx="280.0" cy="640.0" r="2.0" stroke="#000000" stroke-width="4.0" fill="#000000" />
<circle cx="280.0" cy="680.0" r="2.0" stroke="#000000" stroke-width="4.0" fill="#000000" />
<circle cx="360.0" cy="660.0" r="2.0" stroke="#000000" stroke-width="4.0" fill="#000000" />
</g>
<g>
<path d="M 310,590 L 290,590 C 300,574 300,546 290,530 L 310,530 C 330,530 350,540 360,560 C 350,580 330,590 310,590 Z" stroke="#000000" stroke-width="4.0" fill="none"/>
<path d="M 280,590 C 290,580 290,540 280,530" stroke="#000000" stroke-width="4.0" fill="none"/>
<circle cx="280.0" cy="540.0" r="2.0" stroke="#000000" stroke-width="4.0" fill="#000000" />
<circle cx="280.0" cy="580.0" r="2.0" stroke="#000000" stroke-width="4.0" fill="#000000" />
<circle cx="360.0" cy="560.0" r="2.0" stroke="#000000" stroke-width="4.0" fill="#000000" />
</g>
<g>
<text text-anchor="start" x="382.0" y="441.0" fill="#000000" style="font-size:24px">C<tspan style="font-size:80%;baseline-shift:sub;">1</tspan></text>
<path d="M 380,420 L 420,420 L 420,460 L 380,460 Z" stroke-dasharray="4.0,4.0" stroke="#000000" stroke-width="1.0" fill="none"/>
</g>
<g>
<circle cx="1276.0" cy="500.0" r="9.0" stroke="#000000" stroke-width="4.0" fill="none" />
<circle cx="1276.0" cy="500.0" r="15.0" stroke="#000000" stroke-width="4.0" fill="none" />
<text text-anchor="start" x="1305.0" y="509.0" fill="#000000" style="font-size:24px"><tspan style="font-style:italic;">S<tspan style="font-size:80%;baseline-shift:sub;">1</tspan></tspan></text>
<circle cx="1260.0" cy="500.0" r="2.0" stroke="#000000" stroke-width="4.0" fill="#000000" />
</g>
<g>
<path d="M 950,630 L 999,630 L 999,690 L 950,690 C 940,690 920,680 921,660 C 921,640 940,630 950,630 Z" stroke="#000000" stroke-width="4.0" fill="none"/>
<circle cx="1000.0" cy="680.0" r="2.0" stroke="#000000" stroke-width="4.0" fill="#000000" />
<circle cx="1000.0" cy="640.0" r="2.0" stroke="#000000" stroke-width="4.0" fill="#000000" />
<circle cx="920.0" cy="660.0" r="2.0" stroke="#000000" stroke-width="4.0" fill="#000000" />
</g>
<g>
<path d="M 950,710 L 999,710 L 999,770 L 950,770 C 940,770 920,760 921,740 C 921,720 940,710 950,710 Z" stroke="#000000" stroke-width="4.0" fill="none"/>
<circle cx="1000.0" cy="760.0" r="2.0" stroke="#000000" stroke-width="4.0" fill="#000000" />
<circle cx="1000.0" cy="740.0" r="2.0" stroke="#000000" stroke-width="4.0" fill="#000000" />
<circle cx="1000.0" cy="720.0" r="2.0" stroke="#000000" stroke-width="4.0" fill="#000000" />
<circle cx="920.0" cy="740.0" r="2.0" stroke="#000000" stroke-width="4.0" fill="#000000" />
</g>
<g>
<path d="M 750,670 L 780,670 C 770,686 770,714 780,730 L 760,730 C 730,730 710,720 700,700 C 710,680 730,670 750,670 Z" stroke="#000000" stroke-width="4.0" fill="none"/>
<circle cx="780.0" cy="720.0" r="2.0" stroke="#000000" stroke-width="4.0" fill="#000000" />
<circle cx="780.0" cy="700.0" r="2.0" stroke="#000000" stroke-width="4.0" fill="#000000" />
<circle cx="780.0" cy="680.0" r="2.0" stroke="#000000" stroke-width="4.0" fill="#000000" />
<circle cx="700.0" cy="700.0" r="2.0" stroke="#000000" stroke-width="4.0" fill="#000000" />
</g>
<g>
<text text-anchor="start" x="382.0" y="741.0" fill="#000000" style="font-size:24px">C<tspan style="font-size:80%;baseline-shift:sub;">2</tspan></text>
<path d="M 380,720 L 420,720 L 420,760 L 380,760 Z" stroke-dasharray="4.0,4.0" stroke="#000000" stroke-width="1.0" fill="none"/>
</g>
<g>
<path d="M 490,830 L 470,830 C 480,814 480,786 470,770 L 490,770 C 510,770 530,780 540,800 C 530,820 510,830 490,830 Z" stroke="#000000" stroke-width="4.0" fill="none"/>
<path d="M 460,830 C 470,820 470,780 460,770" stroke="#000000" stroke-width="4.0" fill="none"/>
<circle cx="460.0" cy="780.0" r="2.0" stroke="#000000" stroke-width="4.0" fill="#000000" />
<circle cx="460.0" cy="820.0" r="2.0" stroke="#000000" stroke-width="4.0" fill="#000000" />
<circle cx="540.0" cy="800.0" r="2.0" stroke="#000000" stroke-width="4.0" fill="#000000" />
</g>
<g>
<circle cx="1276.0" cy="800.0" r="9.0" stroke="#000000" stroke-width="4.0" fill="none" />
<circle cx="1276.0" cy="800.0" r="15.0" stroke="#000000" stroke-width="4.0" fill="none" />
<text text-anchor="start" x="1305.0" y="809.0" fill="#000000" style="font-size:24px"><tspan style="font-style:italic;">S<tspan style="font-size:80%;baseline-shift:sub;">2</tspan></tspan></text>
<circle cx="1260.0" cy="800.0" r="2.0" stroke="#000000" stroke-width="4.0" fill="#000000" />
</g>
<g>
<path d="M 169,925 L 199,925 L 199,955 L 169,955 Z" stroke="#000000" stroke-width="4.0" fill="none"/>
<circle cx="184.0" cy="940.0" r="9.0" stroke="#000000" stroke-width="4.0" fill="none" />
<text text-anchor="end" x="155.0" y="949.0" fill="#000000" style="font-size:24px"><tspan style="font-style:italic;">A<tspan style="font-size:80%;baseline-shift:sub;">2</tspan></tspan></text>
<circle cx="200.0" cy="940.0" r="2.0" stroke="#000000" stroke-width="4.0" fill="#000000" />
</g>
<g>
<path d="M 169,965 L 199,965 L 199,995 L 169,995 Z" stroke="#000000" stroke-width="4.0" fill="none"/>
<circle cx="184.0" cy="980.0" r="9.0" stroke="#000000" stroke-width="4.0" fill="none" />
<text text-anchor="end" x="155.0" y="989.0" fill="#000000" style="font-size:24px"><tspan style="font-style:italic;">B<tspan style="font-size:80%;baseline-shift:sub;">2</tspan></tspan></text>
<circle cx="200.0" cy="980.0" r="2.0" stroke="#000000" stroke-width="4.0" fill="#000000" />
</g>
<g>
<path d="M 330,990 L 281,990 L 281,930 L 330,930 C 340,930 360,940 359,960 C 359,980 340,990 330,990 Z" stroke="#000000" stroke-width="4.0" fill="none"/>
<circle cx="280.0" cy="940.0" r="2.0" stroke="#000000" stroke-width="4.0" fill="#000000" />
<circle cx="280.0" cy="980.0" r="2.0" stroke="#000000" stroke-width="4.0" fill="#000000" />
<circle cx="360.0" cy="960.0" r="2.0" stroke="#000000" stroke-width="4.0" fill="#000000" />
</g>
<g>
<path d="M 310,890 L 290,890 C 300,874 300,846 290,830 L 310,830 C 330,830 350,840 360,860 C 350,880 330,890 310,890 Z" stroke="#000000" stroke-width="4.0" fill="none"/>
<path d="M 280,890 C 290,880 290,840 280,830" stroke="#000000" stroke-width="4.0" fill="none"/>
<circle cx="280.0" cy="840.0" r="2.0" stroke="#000000" stroke-width="4.0" fill="#000000" />
<circle cx="280.0" cy="880.0" r="2.0" stroke="#000000" stroke-width="4.0" fill="#000000" />
<circle cx="360.0" cy="860.0" r="2.0" stroke="#000000" stroke-width="4.0" fill="#000000" />
</g>
<g>
<path d="M 950,930 L 999,930 L 999,990 L 950,990 C 940,990 920,980 921,960 C 921,940 940,930 950,930 Z" stroke="#000000" stroke-width="4.0" fill="none"/>
<circle cx="1000.0" cy="980.0" r="2.0" stroke="#000000" stroke-width="4.0" fill="#000000" />
<circle cx="1000.0" cy="940.0" r="2.0" stroke="#000000" stroke-width="4.0" fill="#000000" />
<circle cx="920.0" cy="960.0" r="2.0" stroke="#000000" stroke-width="4.0" fill="#000000" />
</g>
<g>
<path d="M 950,1010 L 999,1010 L 999,1070 L 950,1070 C 940,1070 920,1060 921,1040 C 921,1020 940,1010 950,1010 Z" stroke="#000000" stroke-width="4.0" fill="none"/>
<circle cx="1000.0" cy="1060.0" r="2.0" stroke="#000000" stroke-width="4.0" fill="#000000" />
<circle cx="1000.0" cy="1040.0" r="2.0" stroke="#000000" stroke-width="4.0" fill="#000000" />
<circle cx="1000.0" cy="1020.0" r="2.0" stroke="#000000" stroke-width="4.0" fill="#000000" />
<circle cx="920.0" cy="1040.0" r="2.0" stroke="#000000" stroke-width="4.0" fill="#000000" />
</g>
<g>
<path d="M 950,1110 L 999,1110 L 999,1170 L 950,1170 C 940,1170 920,1160 921,1140 C 921,1120 940,1110 950,1110 Z" stroke="#000000" stroke-width="4.0" fill="none"/>
<circle cx="1000.0" cy="1180.0" r="2.0" stroke="#000000" stroke-width="4.0" fill="#000000" />
<circle cx="1000.0" cy="1160.0" r="2.0" stroke="#000000" stroke-width="4.0" fill="#000000" />
<circle cx="1000.0" cy="1120.0" r="2.0" stroke="#000000" stroke-width="4.0" fill="#000000" />
<circle cx="1000.0" cy="1100.0" r="2.0" stroke="#000000" stroke-width="4.0" fill="#000000" />
<circle cx="920.0" cy="1140.0" r="2.0" stroke="#000000" stroke-width="4.0" fill="#000000" />
</g>
<g>
<path d="M 750,990 L 780,990 C 770,1006 770,1034 780,1050 L 760,1050 C 730,1050 710,1040 700,1020 C 710,1000 730,990 750,990 Z" stroke="#000000" stroke-width="4.0" fill="none"/>
<circle cx="780.0" cy="1060.0" r="2.0" stroke="#000000" stroke-width="4.0" fill="#000000" />
<circle cx="780.0" cy="1040.0" r="2.0" stroke="#000000" stroke-width="4.0" fill="#000000" />
<circle cx="780.0" cy="1000.0" r="2.0" stroke="#000000" stroke-width="4.0" fill="#000000" />
<circle cx="780.0" cy="980.0" r="2.0" stroke="#000000" stroke-width="4.0" fill="#000000" />
<circle cx="700.0" cy="1020.0" r="2.0" stroke="#000000" stroke-width="4.0" fill="#000000" />
</g>
<g>
<path d="M 510,1250 L 490,1250 C 500,1234 500,1206 490,1190 L 510,1190 C 530,1190 550,1200 560,1220 C 550,1240 530,1250 510,1250 Z" stroke="#000000" stroke-width="4.0" fill="none"/>
<path d="M 480,1250 C 490,1240 490,1200 480,1190" stroke="#000000" stroke-width="4.0" fill="none"/>
<circle cx="480.0" cy="1200.0" r="2.0" stroke="#000000" stroke-width="4.0" fill="#000000" />
<circle cx="480.0" cy="1240.0" r="2.0" stroke="#000000" stroke-width="4.0" fill="#000000" />
<circle cx="560.0" cy="1220.0" r="2.0" stroke="#000000" stroke-width="4.0" fill="#000000" />
</g>
<g>
<path d="M 169,1345 L 199,1345 L 199,1375 L 169,1375 Z" stroke="#000000" stroke-width="4.0" fill="none"/>
<circle cx="184.0" cy="1360.0" r="9.0" stroke="#000000" stroke-width="4.0" fill="none" />
<text text-anchor="end" x="155.0" y="1369.0" fill="#000000" style="font-size:24px"><tspan style="font-style:italic;">A<tspan style="font-size:80%;baseline-shift:sub;">3</tspan></tspan></text>
<circle cx="200.0" cy="1360.0" r="2.0" stroke="#000000" stroke-width="4.0" fill="#000000" />
</g>
<g>
<path d="M 169,1385 L 199,1385 L 199,1415 L 169,1415 Z" stroke="#000000" stroke-width="4.0" fill="none"/>
<circle cx="184.0" cy="1400.0" r="9.0" stroke="#000000" stroke-width="4.0" fill="none" />
<text text-anchor="end" x="155.0" y="1409.0" fill="#000000" style="font-size:24px"><tspan style="font-style:italic;">B<tspan style="font-size:80%;baseline-shift:sub;">3</tspan></tspan></text>
<circle cx="200.0" cy="1400.0" r="2.0" stroke="#000000" stroke-width="4.0" fill="#000000" />
</g>
<g>
<path d="M 330,1410 L 281,1410 L 281,1350 L 330,1350 C 340,1350 360,1360 359,1380 C 359,1400 340,1410 330,1410 Z" stroke="#000000" stroke-width="4.0" fill="none"/>
<circle cx="280.0" cy="1360.0" r="2.0" stroke="#000000" stroke-width="4.0" fill="#000000" />
<circle cx="280.0" cy="1400.0" r="2.0" stroke="#000000" stroke-width="4.0" fill="#000000" />
<circle cx="360.0" cy="1380.0" r="2.0" stroke="#000000" stroke-width="4.0" fill="#000000" />
</g>
<g>
<path d="M 310,1310 L 290,1310 C 300,1294 300,1266 290,1250 L 310,1250 C 330,1250 350,1260 360,1280 C 350,1300 330,1310 310,1310 Z" stroke="#000000" stroke-width="4.0" fill="none"/>
<path d="M 280,1310 C 290,1300 290,1260 280,1250" stroke="#000000" stroke-width="4.0" fill="none"/>
<circle cx="280.0" cy="1260.0" r="2.0" stroke="#000000" stroke-width="4.0" fill="#000000" />
<circle cx="280.0" cy="1300.0" r="2.0" stroke="#000000" stroke-width="4.0" fill="#000000" />
<circle cx="360.0" cy="1280.0" r="2.0" stroke="#000000" stroke-width="4.0" fill="#000000" />
</g>
<g>
<circle cx="1276.0" cy="1220.0" r="9.0" stroke="#000000" stroke-width="4.0" fill="none" />
<circle cx="1276.0" cy="1220.0" r="15.0" stroke="#000000" stroke-width="4.0" fill="none" />
<text text-anchor="start" x="1305.0" y="1229.0" fill="#000000" style="font-size:24px"><tspan style="font-style:italic;">S<tspan style="font-size:80%;baseline-shift:sub;">3</tspan></tspan></text>
<circle cx="1260.0" cy="1220.0" r="2.0" stroke="#000000" stroke-width="4.0" fill="#000000" />
</g>
<g>
<path d="M 950,1310 L 999,1310 L 999,1370 L 950,1370 C 940,1370 920,1360 921,1340 C 921,1320 940,1310 950,1310 Z" stroke="#000000" stroke-width="4.0" fill="none"/>
<circle cx="1000.0" cy="1360.0" r="2.0" stroke="#000000" stroke-width="4.0" fill="#000000" />
<circle cx="1000.0" cy="1320.0" r="2.0" stroke="#000000" stroke-width="4.0" fill="#000000" />
<circle cx="920.0" cy="1340.0" r="2.0" stroke="#000000" stroke-width="4.0" fill="#000000" />
</g>
<g>
<path d="M 950,1390 L 999,1390 L 999,1450 L 950,1450 C 940,1450 920,1440 921,1420 C 921,1400 940,1390 950,1390 Z" stroke="#000000" stroke-width="4.0" fill="none"/>
<circle cx="1000.0" cy="1440.0" r="2.0" stroke="#000000" stroke-width="4.0" fill="#000000" />
<circle cx="1000.0" cy="1420.0" r="2.0" stroke="#000000" stroke-width="4.0" fill="#000000" />
<circle cx="1000.0" cy="1400.0" r="2.0" stroke="#000000" stroke-width="4.0" fill="#000000" />
<circle cx="920.0" cy="1420.0" r="2.0" stroke="#000000" stroke-width="4.0" fill="#000000" />
</g>
<g>
<path d="M 950,1490 L 999,1490 L 999,1550 L 950,1550 C 940,1550 920,1540 921,1520 C 921,1500 940,1490 950,1490 Z" stroke="#000000" stroke-width="4.0" fill="none"/>
<circle cx="1000.0" cy="1560.0" r="2.0" stroke="#000000" stroke-width="4.0" fill="#000000" />
<circle cx="1000.0" cy="1540.0" r="2.0" stroke="#000000" stroke-width="4.0" fill="#000000" />
<circle cx="1000.0" cy="1500.0" r="2.0" stroke="#000000" stroke-width="4.0" fill="#000000" />
<circle cx="1000.0" cy="1480.0" r="2.0" stroke="#000000" stroke-width="4.0" fill="#000000" />
<circle cx="920.0" cy="1520.0" r="2.0" stroke="#000000" stroke-width="4.0" fill="#000000" />
</g>
<g>
<path d="M 950,1610 L 999,1610 L 999,1670 L 950,1670 C 940,1670 920,1660 921,1640 C 921,1620 940,1610 950,1610 Z" stroke="#000000" stroke-width="4.0" fill="none"/>
<circle cx="1000.0" cy="1680.0" r="2.0" stroke="#000000" stroke-width="4.0" fill="#000000" />
<circle cx="1000.0" cy="1660.0" r="2.0" stroke="#000000" stroke-width="4.0" fill="#000000" />
<circle cx="1000.0" cy="1640.0" r="2.0" stroke="#000000" stroke-width="4.0" fill="#000000" />
<circle cx="1000.0" cy="1620.0" r="2.0" stroke="#000000" stroke-width="4.0" fill="#000000" />
<circle cx="1000.0" cy="1600.0" r="2.0" stroke="#000000" stroke-width="4.0" fill="#000000" />
<circle cx="920.0" cy="1640.0" r="2.0" stroke="#000000" stroke-width="4.0" fill="#000000" />
</g>
<g>
<text text-anchor="start" x="622.0" y="221.0" fill="#000000" style="font-size:24px">P<tspan style="font-size:80%;baseline-shift:sub;">0</tspan></text>
<path d="M 620,200 L 660,200 L 660,240 L 620,240 Z" stroke-dasharray="4.0,4.0" stroke="#000000" stroke-width="1.0" fill="none"/>
</g>
<g>
<text text-anchor="start" x="622.0" y="541.0" fill="#000000" style="font-size:24px">P<tspan style="font-size:80%;baseline-shift:sub;">1</tspan></text>
<path d="M 620,520 L 660,520 L 660,560 L 620,560 Z" stroke-dasharray="4.0,4.0" stroke="#000000" stroke-width="1.0" fill="none"/>
</g>
<g>
<text text-anchor="start" x="622.0" y="841.0" fill="#000000" style="font-size:24px">P<tspan style="font-size:80%;baseline-shift:sub;">2</tspan></text>
<path d="M 620,820 L 660,820 L 660,860 L 620,860 Z" stroke-dasharray="4.0,4.0" stroke="#000000" stroke-width="1.0" fill="none"/>
</g>
<g>
<text text-anchor="start" x="622.0" y="1261.0" fill="#000000" style="font-size:24px">P<tspan style="font-size:80%;baseline-shift:sub;">3</tspan></text>
<path d="M 620,1240 L 660,1240 L 660,1280 L 620,1280 Z" stroke-dasharray="4.0,4.0" stroke="#000000" stroke-width="1.0" fill="none"/>
</g>
<g>
<text text-anchor="start" x="622.0" y="361.0" fill="#000000" style="font-size:24px">G<tspan style="font-size:80%;baseline-shift:sub;">0</tspan></text>
<path d="M 620,340 L 660,340 L 660,380 L 620,380 Z" stroke-dasharray="4.0,4.0" stroke="#000000" stroke-width="1.0" fill="none"/>
</g>
<g>
<text text-anchor="start" x="622.0" y="621.0" fill="#000000" style="font-size:24px">G<tspan style="font-size:80%;baseline-shift:sub;">1</tspan></text>
<path d="M 620,600 L 660,600 L 660,640 L 620,640 Z" stroke-dasharray="4.0,4.0" stroke="#000000" stroke-width="1.0" fill="none"/>
</g>
<g>
<text text-anchor="start" x="622.0" y="921.0" fill="#000000" style="font-size:24px">G<tspan style="font-size:80%;baseline-shift:sub;">2</tspan></text>
<path d="M 620,900 L 660,900 L 660,940 L 620,940 Z" stroke-dasharray="4.0,4.0" stroke="#000000" stroke-width="1.0" fill="none"/>
</g>
<g>
<text text-anchor="start" x="622.0" y="1341.0" fill="#000000" style="font-size:24px">G<tspan style="font-size:80%;baseline-shift:sub;">3</tspan></text>
<path d="M 620,1320 L 660,1320 L 660,1360 L 620,1360 Z" stroke-dasharray="4.0,4.0" stroke="#000000" stroke-width="1.0" fill="none"/>
</g>
<g>
<text text-anchor="start" x="382.0" y="1121.0" fill="#000000" style="font-size:24px">C<tspan style="font-size:80%;baseline-shift:sub;">3</tspan></text>
<path d="M 380,1100 L 420,1100 L 420,1140 L 380,1140 Z" stroke-dasharray="4.0,4.0" stroke="#000000" stroke-width="1.0" fill="none"/>
</g>
<g>
<circle cx="1276.0" cy="1720.0" r="9.0" stroke="#000000" stroke-width="4.0" fill="none" />
<circle cx="1276.0" cy="1720.0" r="15.0" stroke="#000000" stroke-width="4.0" fill="none" />
<text text-anchor="start" x="1305.0" y="1729.0" fill="#000000" style="font-size:24px"><tspan style="font-style:italic;">C<tspan style="font-size:80%;baseline-shift:sub;">4</tspan></tspan></text>
<circle cx="1260.0" cy="1720.0" r="2.0" stroke="#000000" stroke-width="4.0" fill="#000000" />
</g>
<g>
</g>
<g>
<path d="M 750,1390 L 780,1390 C 770,1406 770,1434 780,1450 L 760,1450 C 730,1450 710,1440 700,1420 C 710,1400 730,1390 750,1390 Z" stroke="#000000" stroke-width="4.0" fill="none"/>
<circle cx="780.0" cy="1460.0" r="2.0" stroke="#000000" stroke-width="4.0" fill="#000000" />
<circle cx="780.0" cy="1440.0" r="2.0" stroke="#000000" stroke-width="4.0" fill="#000000" />
<circle cx="780.0" cy="1420.0" r="2.0" stroke="#000000" stroke-width="4.0" fill="#000000" />
<circle cx="780.0" cy="1400.0" r="2.0" stroke="#000000" stroke-width="4.0" fill="#000000" />
<circle cx="780.0" cy="1380.0" r="2.0" stroke="#000000" stroke-width="4.0" fill="#000000" />
<circle cx="700.0" cy="1420.0" r="2.0" stroke="#000000" stroke-width="4.0" fill="#000000" />
</g>
</g>
</svg>