<?xml version="1.0" encoding="UTF-8"?>
<svg xmlns="http://www.w3.org/2000/svg" viewBox="0 0 136 136">
  <title>Aztec Code (layers=8, compact=0)</title>
  <rect width="136" height="136" fill="white"/>
  <rect x="32" y="32" width="8" height="8" fill="black"/>
  <rect x="40" y="32" width="8" height="8" fill="black"/>
  <rect x="48" y="32" width="8" height="8" fill="black"/>
  <rect x="56" y="32" width="8" height="8" fill="black"/>
  <rect x="64" y="32" width="8" height="8" fill="black"/>
  <rect x="72" y="32" width="8" height="8" fill="black"/>
  <rect x="80" y="32" width="8" height="8" fill="black"/>
  <rect x="88" y="32" width="8" height="8" fill="black"/>
  <rect x="96" y="32" width="8" height="8" fill="black"/>
  <rect x="32" y="40" width="8" height="8" fill="black"/>
  <rect x="40" y="40" width="8" height="8" fill="black"/>
  <rect x="48" y="40" width="8" height="8" fill="black"/>
  <rect x="56" y="40" width="8" height="8" fill="black"/>
  <rect x="64" y="40" width="8" height="8" fill="black"/>
  <rect x="72" y="40" width="8" height="8" fill="black"/>
  <rect x="80" y="40" width="8" height="8" fill="black"/>
  <rect x="88" y="40" width="8" height="8" fill="black"/>
  <rect x="96" y="40" width="8" height="8" fill="black"/>
  <rect x="32" y="48" width="8" height="8" fill="black"/>
  <rect x="40" y="48" width="8" height="8" fill="black"/>
  <rect x="48" y="48" width="8" height="8" fill="black"/>
  <rect x="64" y="48" width="8" height="8" fill="black"/>
  <rect x="80" y="48" width="8" height="8" fill="black"/>
  <rect x="88" y="48" width="8" height="8" fill="black"/>
  <rect x="96" y="48" width="8" height="8" fill="black"/>
  <rect x="32" y="56" width="8" height="8" fill="black"/>
  <rect x="40" y="56" width="8" height="8" fill="black"/>
  <rect x="56" y="56" width="8" height="8" fill="black"/>
  <rect x="72" y="56" width="8" height="8" fill="black"/>
  <rect x="88" y="56" width="8" height="8" fill="black"/>
  <rect x="96" y="56" width="8" height="8" fill="black"/>
  <rect x="32" y="64" width="8" height="8" fill="black"/>
  <rect x="40" y="64" width="8" height="8" fill="black"/>
  <rect x="48" y="64" width="8" height="8" fill="black"/>
  <rect x="64" y="64" width="8" height="8" fill="black"/>
  <rect x="80" y="64" width="8" height="8" fill="black"/>
  <rect x="88" y="64" width="8" height="8" fill="black"/>
  <rect x="96" y="64" width="8" height="8" fill="black"/>
  <rect x="32" y="72" width="8" height="8" fill="black"/>
  <rect x="40" y="72" width="8" height="8" fill="black"/>
  <rect x="56" y="72" width="8" height="8" fill="black"/>
  <rect x="72" y="72" width="8" height="8" fill="black"/>
  <rect x="88" y="72" width="8" height="8" fill="black"/>
  <rect x="96" y="72" width="8" height="8" fill="black"/>
  <rect x="32" y="80" width="8" height="8" fill="black"/>
  <rect x="40" y="80" width="8" height="8" fill="black"/>
  <rect x="48" y="80" width="8" height="8" fill="black"/>
  <rect x="64" y="80" width="8" height="8" fill="black"/>
  <rect x="96" y="80" width="8" height="8" fill="black"/>
  <rect x="32" y="88" width="8" height="8" fill="black"/>
  <rect x="40" y="88" width="8" height="8" fill="black"/>
  <rect x="48" y="88" width="8" height="8" fill="black"/>
  <rect x="56" y="88" width="8" height="8" fill="black"/>
  <rect x="64" y="88" width="8" height="8" fill="black"/>
  <rect x="72" y="88" width="8" height="8" fill="black"/>
  <rect x="80" y="88" width="8" height="8" fill="black"/>
  <rect x="88" y="88" width="8" height="8" fill="black"/>
  <rect x="96" y="88" width="8" height="8" fill="black"/>
  <rect x="32" y="96" width="8" height="8" fill="black"/>
  <rect x="40" y="96" width="8" height="8" fill="black"/>
  <rect x="48" y="96" width="8" height="8" fill="black"/>
  <rect x="56" y="96" width="8" height="8" fill="black"/>
  <rect x="64" y="96" width="8" height="8" fill="black"/>
  <rect x="72" y="96" width="8" height="8" fill="black"/>
  <rect x="80" y="96" width="8" height="8" fill="black"/>
  <rect x="80" y="104" width="8" height="8" fill="black"/>
  <rect x="88" y="104" width="8" height="8" fill="black"/>
  <rect x="96" y="104" width="8" height="8" fill="black"/>
  <rect x="104" y="104" width="8" height="8" fill="black"/>
  <rect x="96" y="112" width="8" height="8" fill="black"/>
</svg>
