<?xml version="1.0" encoding="UTF-8"?>
<svg xmlns="http://www.w3.org/2000/svg" viewBox="0 0 88 88">
  <rect width="88" height="88" fill="white"/>
  <rect x="8" y="8" width="8" height="8" fill="black"/>
  <rect x="16" y="8" width="8" height="8" fill="black"/>
  <rect x="24" y="8" width="8" height="8" fill="black"/>
  <rect x="32" y="8" width="8" height="8" fill="black"/>
  <rect x="40" y="8" width="8" height="8" fill="black"/>
  <rect x="48" y="8" width="8" height="8" fill="black"/>
  <rect x="56" y="8" width="8" height="8" fill="black"/>
  <rect x="64" y="8" width="8" height="8" fill="black"/>
  <rect x="72" y="8" width="8" height="8" fill="black"/>
  <rect x="8" y="16" width="8" height="8" fill="black"/>
  <rect x="16" y="16" width="8" height="8" fill="black"/>
  <rect x="32" y="16" width="8" height="8" fill="black"/>
  <rect x="48" y="16" width="8" height="8" fill="black"/>
  <rect x="64" y="16" width="8" height="8" fill="black"/>
  <rect x="72" y="16" width="8" height="8" fill="black"/>
  <rect x="8" y="24" width="8" height="8" fill="black"/>
  <rect x="32" y="24" width="8" height="8" fill="black"/>
  <rect x="40" y="24" width="8" height="8" fill="black"/>
  <rect x="56" y="24" width="8" height="8" fill="black"/>
  <rect x="72" y="24" width="8" height="8" fill="black"/>
  <rect x="8" y="32" width="8" height="8" fill="black"/>
  <rect x="16" y="32" width="8" height="8" fill="black"/>
  <rect x="48" y="32" width="8" height="8" fill="black"/>
  <rect x="56" y="32" width="8" height="8" fill="black"/>
  <rect x="64" y="32" width="8" height="8" fill="black"/>
  <rect x="72" y="32" width="8" height="8" fill="black"/>
  <rect x="8" y="40" width="8" height="8" fill="black"/>
  <rect x="24" y="40" width="8" height="8" fill="black"/>
  <rect x="32" y="40" width="8" height="8" fill="black"/>
  <rect x="40" y="40" width="8" height="8" fill="black"/>
  <rect x="48" y="40" width="8" height="8" fill="black"/>
  <rect x="56" y="40" width="8" height="8" fill="black"/>
  <rect x="72" y="40" width="8" height="8" fill="black"/>
  <rect x="8" y="48" width="8" height="8" fill="black"/>
  <rect x="16" y="48" width="8" height="8" fill="black"/>
  <rect x="32" y="48" width="8" height="8" fill="black"/>
  <rect x="40" y="48" width="8" height="8" fill="black"/>
  <rect x="64" y="48" width="8" height="8" fill="black"/>
  <rect x="72" y="48" width="8" height="8" fill="black"/>
  <rect x="8" y="56" width="8" height="8" fill="black"/>
  <rect x="24" y="56" width="8" height="8" fill="black"/>
  <rect x="40" y="56" width="8" height="8" fill="black"/>
  <rect x="56" y="56" width="8" height="8" fill="black"/>
  <rect x="72" y="56" width="8" height="8" fill="black"/>
  <rect x="8" y="64" width="8" height="8" fill="black"/>
  <rect x="16" y="64" width="8" height="8" fill="black"/>
  <rect x="32" y="64" width="8" height="8" fill="black"/>
  <rect x="48" y="64" width="8" height="8" fill="black"/>
  <rect x="64" y="64" width="8" height="8" fill="black"/>
  <rect x="72" y="64" width="8" height="8" fill="black"/>
  <rect x="8" y="72" width="8" height="8" fill="black"/>
  <rect x="16" y="72" width="8" height="8" fill="black"/>
  <rect x="24" y="72" width="8" height="8" fill="black"/>
  <rect x="32" y="72" width="8" height="8" fill="black"/>
  <rect x="40" y="72" width="8" height="8" fill="black"/>
  <rect x="48" y="72" width="8" height="8" fill="black"/>
  <rect x="56" y="72" width="8" height="8" fill="black"/>
  <rect x="64" y="72" width="8" height="8" fill="black"/>
  <rect x="72" y="72" width="8" height="8" fill="black"/>
</svg>
