<?xml version="1.0" encoding="UTF-8"?>
<svg xmlns="http://www.w3.org/2000/svg" viewBox="0 0 180 100">
  <title>BeeTag v5 (2-of-5 coding)</title>
  <rect width="180" height="100" fill="white"/>
  <rect x="20" y="0" width="20" height="20" fill="black"/>
  <rect x="60" y="0" width="20" height="20" fill="black"/>
  <rect x="100" y="0" width="20" height="20" fill="black"/>
  <rect x="120" y="0" width="20" height="20" fill="black"/>
  <rect x="40" y="20" width="20" height="20" fill="black"/>
  <rect x="60" y="20" width="20" height="20" fill="black"/>
  <rect x="80" y="20" width="20" height="20" fill="black"/>
  <rect x="100" y="20" width="20" height="20" fill="black"/>
  <rect x="160" y="20" width="20" height="20" fill="black"/>
  <rect x="20" y="40" width="20" height="20" fill="black"/>
  <rect x="40" y="40" width="20" height="20" fill="black"/>
  <rect x="60" y="40" width="20" height="20" fill="black"/>
  <rect x="80" y="40" width="20" height="20" fill="black"/>
  <rect x="80" y="60" width="20" height="20" fill="black"/>
  <rect x="140" y="60" width="20" height="20" fill="black"/>
  <rect x="20" y="80" width="20" height="20" fill="black"/>
  <rect x="40" y="80" width="20" height="20" fill="black"/>
  <rect x="100" y="80" width="20" height="20" fill="black"/>
  <rect x="120" y="80" width="20" height="20" fill="black"/>
  <rect x="140" y="80" width="20" height="20" fill="black"/>
  <rect x="160" y="80" width="20" height="20" fill="black"/>
</svg>
