<?xml version="1.0" encoding="UTF-8"?>
<svg xmlns="http://www.w3.org/2000/svg" viewBox="0 0 330 330">
  <rect width="330" height="330" fill="white"/>
  <rect x="160" y="120" width="10" height="10" fill="black"/>
  <rect x="150" y="130" width="10" height="10" fill="black"/>
  <rect x="170" y="130" width="10" height="10" fill="black"/>
  <rect x="140" y="140" width="10" height="10" fill="black"/>
  <rect x="160" y="140" width="10" height="10" fill="black"/>
  <rect x="180" y="140" width="10" height="10" fill="black"/>
  <rect x="130" y="150" width="10" height="10" fill="black"/>
  <rect x="150" y="150" width="10" height="10" fill="black"/>
  <rect x="170" y="150" width="10" height="10" fill="black"/>
  <rect x="190" y="150" width="10" height="10" fill="black"/>
  <rect x="110" y="160" width="10" height="10" fill="black"/>
  <rect x="120" y="160" width="10" height="10" fill="black"/>
  <rect x="130" y="160" width="10" height="10" fill="black"/>
  <rect x="140" y="160" width="10" height="10" fill="black"/>
  <rect x="160" y="160" width="10" height="10" fill="black"/>
  <rect x="180" y="160" width="10" height="10" fill="black"/>
  <rect x="200" y="160" width="10" height="10" fill="black"/>
  <rect x="130" y="170" width="10" height="10" fill="black"/>
  <rect x="150" y="170" width="10" height="10" fill="black"/>
  <rect x="170" y="170" width="10" height="10" fill="black"/>
  <rect x="190" y="170" width="10" height="10" fill="black"/>
  <rect x="140" y="180" width="10" height="10" fill="black"/>
  <rect x="160" y="180" width="10" height="10" fill="black"/>
  <rect x="180" y="180" width="10" height="10" fill="black"/>
  <rect x="150" y="190" width="10" height="10" fill="black"/>
  <rect x="170" y="190" width="10" height="10" fill="black"/>
  <rect x="160" y="200" width="10" height="10" fill="black"/>
</svg>
