<?xml version="1.0" encoding="UTF-8"?>
<svg xmlns="http://www.w3.org/2000/svg" viewBox="0 0 424 232">
  <title>Reverse Debug - Execution Timeline</title>
  <rect width="424" height="232" fill="white"/>
  <rect x="20" y="20" width="11" height="11" fill="#e74c3c"/>
  <rect x="32" y="20" width="11" height="11" fill="#e74c3c"/>
  <rect x="44" y="20" width="11" height="11" fill="#e74c3c"/>
  <rect x="56" y="20" width="11" height="11" fill="#e74c3c"/>
  <rect x="68" y="20" width="11" height="11" fill="#e74c3c"/>
  <rect x="80" y="20" width="11" height="11" fill="#e74c3c"/>
  <rect x="92" y="20" width="11" height="11" fill="#e74c3c"/>
  <rect x="104" y="20" width="11" height="11" fill="#e74c3c"/>
  <rect x="116" y="20" width="11" height="11" fill="#e74c3c"/>
  <rect x="128" y="20" width="11" height="11" fill="#e74c3c"/>
  <rect x="140" y="20" width="11" height="11" fill="#e74c3c"/>
  <rect x="152" y="20" width="11" height="11" fill="#e74c3c"/>
  <rect x="164" y="20" width="11" height="11" fill="#e74c3c"/>
  <rect x="176" y="20" width="11" height="11" fill="#e74c3c"/>
  <rect x="188" y="20" width="11" height="11" fill="#e74c3c"/>
  <rect x="200" y="20" width="11" height="11" fill="#e74c3c"/>
  <rect x="212" y="20" width="11" height="11" fill="#e74c3c"/>
  <rect x="224" y="20" width="11" height="11" fill="#e74c3c"/>
  <rect x="236" y="20" width="11" height="11" fill="#e74c3c"/>
  <rect x="248" y="20" width="11" height="11" fill="#e74c3c"/>
  <rect x="260" y="20" width="11" height="11" fill="#e74c3c"/>
  <rect x="272" y="20" width="11" height="11" fill="#e74c3c"/>
  <rect x="284" y="20" width="11" height="11" fill="#e74c3c"/>
  <rect x="296" y="20" width="11" height="11" fill="#e74c3c"/>
  <rect x="308" y="20" width="11" height="11" fill="#e74c3c"/>
  <rect x="320" y="20" width="11" height="11" fill="#e74c3c"/>
  <rect x="332" y="20" width="11" height="11" fill="#e74c3c"/>
  <rect x="344" y="20" width="11" height="11" fill="#e74c3c"/>
  <rect x="356" y="20" width="11" height="11" fill="#e74c3c"/>
  <rect x="368" y="20" width="11" height="11" fill="#e74c3c"/>
  <rect x="380" y="20" width="11" height="11" fill="#e74c3c"/>
  <rect x="392" y="20" width="11" height="11" fill="#e74c3c"/>
  <rect x="20" y="32" width="11" height="11" fill="#e74c3c"/>
  <rect x="32" y="32" width="11" height="11" fill="#e74c3c"/>
  <rect x="44" y="32" width="11" height="11" fill="#e74c3c"/>
  <rect x="56" y="32" width="11" height="11" fill="#e74c3c"/>
  <rect x="68" y="32" width="11" height="11" fill="#e74c3c"/>
  <rect x="80" y="32" width="11" height="11" fill="#e74c3c"/>
  <rect x="92" y="32" width="11" height="11" fill="#e74c3c"/>
  <rect x="104" y="32" width="11" height="11" fill="#e74c3c"/>
  <rect x="116" y="32" width="11" height="11" fill="#e74c3c"/>
  <rect x="128" y="32" width="11" height="11" fill="#e74c3c"/>
  <rect x="140" y="32" width="11" height="11" fill="#e74c3c"/>
  <rect x="152" y="32" width="11" height="11" fill="#e74c3c"/>
  <rect x="164" y="32" width="11" height="11" fill="#e74c3c"/>
  <rect x="176" y="32" width="11" height="11" fill="#e74c3c"/>
  <rect x="188" y="32" width="11" height="11" fill="#e74c3c"/>
  <rect x="200" y="32" width="11" height="11" fill="#e74c3c"/>
  <rect x="212" y="32" width="11" height="11" fill="#3498db"/>
  <rect x="224" y="32" width="11" height="11" fill="#e74c3c"/>
  <rect x="236" y="32" width="11" height="11" fill="#e74c3c"/>
  <rect x="248" y="32" width="11" height="11" fill="#e74c3c"/>
  <rect x="260" y="32" width="11" height="11" fill="#e74c3c"/>
  <rect x="272" y="32" width="11" height="11" fill="#e74c3c"/>
  <rect x="284" y="32" width="11" height="11" fill="#e74c3c"/>
  <rect x="296" y="32" width="11" height="11" fill="#e74c3c"/>
  <rect x="308" y="32" width="11" height="11" fill="#e74c3c"/>
  <rect x="320" y="32" width="11" height="11" fill="#e74c3c"/>
  <rect x="332" y="32" width="11" height="11" fill="#e74c3c"/>
  <rect x="344" y="32" width="11" height="11" fill="#e74c3c"/>
  <rect x="356" y="32" width="11" height="11" fill="#e74c3c"/>
  <rect x="368" y="32" width="11" height="11" fill="#e74c3c"/>
  <rect x="380" y="32" width="11" height="11" fill="#e74c3c"/>
  <rect x="392" y="32" width="11" height="11" fill="#e74c3c"/>
  <rect x="20" y="44" width="11" height="11" fill="#e74c3c"/>
  <rect x="32" y="44" width="11" height="11" fill="#e74c3c"/>
  <rect x="44" y="44" width="11" height="11" fill="#e74c3c"/>
  <rect x="56" y="44" width="11" height="11" fill="#e74c3c"/>
  <rect x="68" y="44" width="11" height="11" fill="#e74c3c"/>
  <rect x="80" y="44" width="11" height="11" fill="#e74c3c"/>
  <rect x="92" y="44" width="11" height="11" fill="#e74c3c"/>
  <rect x="104" y="44" width="11" height="11" fill="#e74c3c"/>
  <rect x="116" y="44" width="11" height="11" fill="#e74c3c"/>
  <rect x="128" y="44" width="11" height="11" fill="#e74c3c"/>
  <rect x="140" y="44" width="11" height="11" fill="#e74c3c"/>
  <rect x="152" y="44" width="11" height="11" fill="#e74c3c"/>
  <rect x="164" y="44" width="11" height="11" fill="#e74c3c"/>
  <rect x="176" y="44" width="11" height="11" fill="#e74c3c"/>
  <rect x="188" y="44" width="11" height="11" fill="#e74c3c"/>
  <rect x="200" y="44" width="11" height="11" fill="#e74c3c"/>
  <rect x="212" y="44" width="11" height="11" fill="#e74c3c"/>
  <rect x="224" y="44" width="11" height="11" fill="#e74c3c"/>
  <rect x="236" y="44" width="11" height="11" fill="#e74c3c"/>
  <rect x="248" y="44" width="11" height="11" fill="#e74c3c"/>
  <rect x="260" y="44" width="11" height="11" fill="#e74c3c"/>
  <rect x="272" y="44" width="11" height="11" fill="#e74c3c"/>
  <rect x="284" y="44" width="11" height="11" fill="#e74c3c"/>
  <rect x="296" y="44" width="11" height="11" fill="#e74c3c"/>
  <rect x="308" y="44" width="11" height="11" fill="#e74c3c"/>
  <rect x="320" y="44" width="11" height="11" fill="#e74c3c"/>
  <rect x="332" y="44" width="11" height="11" fill="#e74c3c"/>
  <rect x="344" y="44" width="11" height="11" fill="#e74c3c"/>
  <rect x="356" y="44" width="11" height="11" fill="#e74c3c"/>
  <rect x="368" y="44" width="11" height="11" fill="#e74c3c"/>
  <rect x="380" y="44" width="11" height="11" fill="#e74c3c"/>
  <rect x="392" y="44" width="11" height="11" fill="#e74c3c"/>
  <rect x="20" y="56" width="11" height="11" fill="#e74c3c"/>
  <rect x="32" y="56" width="11" height="11" fill="#e74c3c"/>
  <rect x="44" y="56" width="11" height="11" fill="#e74c3c"/>
  <rect x="56" y="56" width="11" height="11" fill="#e74c3c"/>
  <rect x="68" y="56" width="11" height="11" fill="#e74c3c"/>
  <rect x="80" y="56" width="11" height="11" fill="#e74c3c"/>
  <rect x="92" y="56" width="11" height="11" fill="#e74c3c"/>
  <rect x="104" y="56" width="11" height="11" fill="#e74c3c"/>
  <rect x="116" y="56" width="11" height="11" fill="#e74c3c"/>
  <rect x="128" y="56" width="11" height="11" fill="#e74c3c"/>
  <rect x="140" y="56" width="11" height="11" fill="#e74c3c"/>
  <rect x="152" y="56" width="11" height="11" fill="#e74c3c"/>
  <rect x="164" y="56" width="11" height="11" fill="#e74c3c"/>
  <rect x="176" y="56" width="11" height="11" fill="#e74c3c"/>
  <rect x="188" y="56" width="11" height="11" fill="#e74c3c"/>
  <rect x="200" y="56" width="11" height="11" fill="#e74c3c"/>
  <rect x="212" y="56" width="11" height="11" fill="#3498db"/>
  <rect x="224" y="56" width="11" height="11" fill="#e74c3c"/>
  <rect x="236" y="56" width="11" height="11" fill="#e74c3c"/>
  <rect x="248" y="56" width="11" height="11" fill="#e74c3c"/>
  <rect x="260" y="56" width="11" height="11" fill="#e74c3c"/>
  <rect x="272" y="56" width="11" height="11" fill="#e74c3c"/>
  <rect x="284" y="56" width="11" height="11" fill="#e74c3c"/>
  <rect x="296" y="56" width="11" height="11" fill="#e74c3c"/>
  <rect x="308" y="56" width="11" height="11" fill="#e74c3c"/>
  <rect x="320" y="56" width="11" height="11" fill="#e74c3c"/>
  <rect x="332" y="56" width="11" height="11" fill="#e74c3c"/>
  <rect x="344" y="56" width="11" height="11" fill="#e74c3c"/>
  <rect x="356" y="56" width="11" height="11" fill="#e74c3c"/>
  <rect x="368" y="56" width="11" height="11" fill="#e74c3c"/>
  <rect x="380" y="56" width="11" height="11" fill="#e74c3c"/>
  <rect x="392" y="56" width="11" height="11" fill="#e74c3c"/>
  <rect x="20" y="68" width="11" height="11" fill="#e74c3c"/>
  <rect x="32" y="68" width="11" height="11" fill="#e74c3c"/>
  <rect x="44" y="68" width="11" height="11" fill="#e74c3c"/>
  <rect x="56" y="68" width="11" height="11" fill="#e74c3c"/>
  <rect x="68" y="68" width="11" height="11" fill="#e74c3c"/>
  <rect x="80" y="68" width="11" height="11" fill="#e74c3c"/>
  <rect x="92" y="68" width="11" height="11" fill="#e74c3c"/>
  <rect x="104" y="68" width="11" height="11" fill="#e74c3c"/>
  <rect x="116" y="68" width="11" height="11" fill="#e74c3c"/>
  <rect x="128" y="68" width="11" height="11" fill="#e74c3c"/>
  <rect x="140" y="68" width="11" height="11" fill="#e74c3c"/>
  <rect x="152" y="68" width="11" height="11" fill="#e74c3c"/>
  <rect x="164" y="68" width="11" height="11" fill="#e74c3c"/>
  <rect x="176" y="68" width="11" height="11" fill="#e74c3c"/>
  <rect x="188" y="68" width="11" height="11" fill="#e74c3c"/>
  <rect x="200" y="68" width="11" height="11" fill="#e74c3c"/>
  <rect x="212" y="68" width="11" height="11" fill="#e74c3c"/>
  <rect x="224" y="68" width="11" height="11" fill="#e74c3c"/>
  <rect x="236" y="68" width="11" height="11" fill="#e74c3c"/>
  <rect x="248" y="68" width="11" height="11" fill="#e74c3c"/>
  <rect x="260" y="68" width="11" height="11" fill="#e74c3c"/>
  <rect x="272" y="68" width="11" height="11" fill="#e74c3c"/>
  <rect x="284" y="68" width="11" height="11" fill="#e74c3c"/>
  <rect x="296" y="68" width="11" height="11" fill="#e74c3c"/>
  <rect x="308" y="68" width="11" height="11" fill="#e74c3c"/>
  <rect x="320" y="68" width="11" height="11" fill="#e74c3c"/>
  <rect x="332" y="68" width="11" height="11" fill="#e74c3c"/>
  <rect x="344" y="68" width="11" height="11" fill="#e74c3c"/>
  <rect x="356" y="68" width="11" height="11" fill="#e74c3c"/>
  <rect x="368" y="68" width="11" height="11" fill="#e74c3c"/>
  <rect x="380" y="68" width="11" height="11" fill="#e74c3c"/>
  <rect x="392" y="68" width="11" height="11" fill="#e74c3c"/>
  <rect x="20" y="80" width="11" height="11" fill="#e74c3c"/>
  <rect x="32" y="80" width="11" height="11" fill="#e74c3c"/>
  <rect x="44" y="80" width="11" height="11" fill="#e74c3c"/>
  <rect x="56" y="80" width="11" height="11" fill="#e74c3c"/>
  <rect x="68" y="80" width="11" height="11" fill="#e74c3c"/>
  <rect x="80" y="80" width="11" height="11" fill="#e74c3c"/>
  <rect x="92" y="80" width="11" height="11" fill="#e74c3c"/>
  <rect x="104" y="80" width="11" height="11" fill="#e74c3c"/>
  <rect x="116" y="80" width="11" height="11" fill="#e74c3c"/>
  <rect x="128" y="80" width="11" height="11" fill="#e74c3c"/>
  <rect x="140" y="80" width="11" height="11" fill="#e74c3c"/>
  <rect x="152" y="80" width="11" height="11" fill="#e74c3c"/>
  <rect x="164" y="80" width="11" height="11" fill="#e74c3c"/>
  <rect x="176" y="80" width="11" height="11" fill="#e74c3c"/>
  <rect x="188" y="80" width="11" height="11" fill="#e74c3c"/>
  <rect x="200" y="80" width="11" height="11" fill="#e74c3c"/>
  <rect x="212" y="80" width="11" height="11" fill="#3498db"/>
  <rect x="224" y="80" width="11" height="11" fill="#e74c3c"/>
  <rect x="236" y="80" width="11" height="11" fill="#e74c3c"/>
  <rect x="248" y="80" width="11" height="11" fill="#e74c3c"/>
  <rect x="260" y="80" width="11" height="11" fill="#e74c3c"/>
  <rect x="272" y="80" width="11" height="11" fill="#e74c3c"/>
  <rect x="284" y="80" width="11" height="11" fill="#e74c3c"/>
  <rect x="296" y="80" width="11" height="11" fill="#e74c3c"/>
  <rect x="308" y="80" width="11" height="11" fill="#e74c3c"/>
  <rect x="320" y="80" width="11" height="11" fill="#e74c3c"/>
  <rect x="332" y="80" width="11" height="11" fill="#e74c3c"/>
  <rect x="344" y="80" width="11" height="11" fill="#e74c3c"/>
  <rect x="356" y="80" width="11" height="11" fill="#e74c3c"/>
  <rect x="368" y="80" width="11" height="11" fill="#e74c3c"/>
  <rect x="380" y="80" width="11" height="11" fill="#e74c3c"/>
  <rect x="392" y="80" width="11" height="11" fill="#e74c3c"/>
  <rect x="20" y="92" width="11" height="11" fill="#e74c3c"/>
  <rect x="32" y="92" width="11" height="11" fill="#e74c3c"/>
  <rect x="44" y="92" width="11" height="11" fill="#e74c3c"/>
  <rect x="56" y="92" width="11" height="11" fill="#e74c3c"/>
  <rect x="68" y="92" width="11" height="11" fill="#e74c3c"/>
  <rect x="80" y="92" width="11" height="11" fill="#e74c3c"/>
  <rect x="92" y="92" width="11" height="11" fill="#e74c3c"/>
  <rect x="104" y="92" width="11" height="11" fill="#e74c3c"/>
  <rect x="116" y="92" width="11" height="11" fill="#e74c3c"/>
  <rect x="128" y="92" width="11" height="11" fill="#e74c3c"/>
  <rect x="140" y="92" width="11" height="11" fill="#e74c3c"/>
  <rect x="152" y="92" width="11" height="11" fill="#e74c3c"/>
  <rect x="164" y="92" width="11" height="11" fill="#e74c3c"/>
  <rect x="176" y="92" width="11" height="11" fill="#e74c3c"/>
  <rect x="188" y="92" width="11" height="11" fill="#e74c3c"/>
  <rect x="200" y="92" width="11" height="11" fill="#e74c3c"/>
  <rect x="212" y="92" width="11" height="11" fill="#e74c3c"/>
  <rect x="224" y="92" width="11" height="11" fill="#e74c3c"/>
  <rect x="236" y="92" width="11" height="11" fill="#e74c3c"/>
  <rect x="248" y="92" width="11" height="11" fill="#e74c3c"/>
  <rect x="260" y="92" width="11" height="11" fill="#e74c3c"/>
  <rect x="272" y="92" width="11" height="11" fill="#e74c3c"/>
  <rect x="284" y="92" width="11" height="11" fill="#e74c3c"/>
  <rect x="296" y="92" width="11" height="11" fill="#e74c3c"/>
  <rect x="308" y="92" width="11" height="11" fill="#e74c3c"/>
  <rect x="320" y="92" width="11" height="11" fill="#e74c3c"/>
  <rect x="332" y="92" width="11" height="11" fill="#e74c3c"/>
  <rect x="344" y="92" width="11" height="11" fill="#e74c3c"/>
  <rect x="356" y="92" width="11" height="11" fill="#e74c3c"/>
  <rect x="368" y="92" width="11" height="11" fill="#e74c3c"/>
  <rect x="380" y="92" width="11" height="11" fill="#e74c3c"/>
  <rect x="392" y="92" width="11" height="11" fill="#e74c3c"/>
  <rect x="20" y="104" width="11" height="11" fill="#e74c3c"/>
  <rect x="32" y="104" width="11" height="11" fill="#e74c3c"/>
  <rect x="44" y="104" width="11" height="11" fill="#e74c3c"/>
  <rect x="56" y="104" width="11" height="11" fill="#e74c3c"/>
  <rect x="68" y="104" width="11" height="11" fill="#e74c3c"/>
  <rect x="80" y="104" width="11" height="11" fill="#e74c3c"/>
  <rect x="92" y="104" width="11" height="11" fill="#e74c3c"/>
  <rect x="104" y="104" width="11" height="11" fill="#e74c3c"/>
  <rect x="116" y="104" width="11" height="11" fill="#e74c3c"/>
  <rect x="128" y="104" width="11" height="11" fill="#e74c3c"/>
  <rect x="140" y="104" width="11" height="11" fill="#e74c3c"/>
  <rect x="152" y="104" width="11" height="11" fill="#e74c3c"/>
  <rect x="164" y="104" width="11" height="11" fill="#e74c3c"/>
  <rect x="176" y="104" width="11" height="11" fill="#e74c3c"/>
  <rect x="188" y="104" width="11" height="11" fill="#e74c3c"/>
  <rect x="200" y="104" width="11" height="11" fill="#e74c3c"/>
  <rect x="212" y="104" width="11" height="11" fill="#3498db"/>
  <rect x="224" y="104" width="11" height="11" fill="#e74c3c"/>
  <rect x="236" y="104" width="11" height="11" fill="#e74c3c"/>
  <rect x="248" y="104" width="11" height="11" fill="#e74c3c"/>
  <rect x="260" y="104" width="11" height="11" fill="#e74c3c"/>
  <rect x="272" y="104" width="11" height="11" fill="#e74c3c"/>
  <rect x="284" y="104" width="11" height="11" fill="#e74c3c"/>
  <rect x="296" y="104" width="11" height="11" fill="#e74c3c"/>
  <rect x="308" y="104" width="11" height="11" fill="#e74c3c"/>
  <rect x="320" y="104" width="11" height="11" fill="#e74c3c"/>
  <rect x="332" y="104" width="11" height="11" fill="#e74c3c"/>
  <rect x="344" y="104" width="11" height="11" fill="#e74c3c"/>
  <rect x="356" y="104" width="11" height="11" fill="#e74c3c"/>
  <rect x="368" y="104" width="11" height="11" fill="#e74c3c"/>
  <rect x="380" y="104" width="11" height="11" fill="#e74c3c"/>
  <rect x="392" y="104" width="11" height="11" fill="#e74c3c"/>
  <rect x="20" y="116" width="11" height="11" fill="#e74c3c"/>
  <rect x="32" y="116" width="11" height="11" fill="#e74c3c"/>
  <rect x="44" y="116" width="11" height="11" fill="#e74c3c"/>
  <rect x="56" y="116" width="11" height="11" fill="#e74c3c"/>
  <rect x="68" y="116" width="11" height="11" fill="#e74c3c"/>
  <rect x="80" y="116" width="11" height="11" fill="#e74c3c"/>
  <rect x="92" y="116" width="11" height="11" fill="#e74c3c"/>
  <rect x="104" y="116" width="11" height="11" fill="#e74c3c"/>
  <rect x="116" y="116" width="11" height="11" fill="#e74c3c"/>
  <rect x="128" y="116" width="11" height="11" fill="#e74c3c"/>
  <rect x="140" y="116" width="11" height="11" fill="#e74c3c"/>
  <rect x="152" y="116" width="11" height="11" fill="#e74c3c"/>
  <rect x="164" y="116" width="11" height="11" fill="#e74c3c"/>
  <rect x="176" y="116" width="11" height="11" fill="#e74c3c"/>
  <rect x="188" y="116" width="11" height="11" fill="#e74c3c"/>
  <rect x="200" y="116" width="11" height="11" fill="#e74c3c"/>
  <rect x="212" y="116" width="11" height="11" fill="#e74c3c"/>
  <rect x="224" y="116" width="11" height="11" fill="#e74c3c"/>
  <rect x="236" y="116" width="11" height="11" fill="#e74c3c"/>
  <rect x="248" y="116" width="11" height="11" fill="#e74c3c"/>
  <rect x="260" y="116" width="11" height="11" fill="#e74c3c"/>
  <rect x="272" y="116" width="11" height="11" fill="#e74c3c"/>
  <rect x="284" y="116" width="11" height="11" fill="#e74c3c"/>
  <rect x="296" y="116" width="11" height="11" fill="#e74c3c"/>
  <rect x="308" y="116" width="11" height="11" fill="#e74c3c"/>
  <rect x="320" y="116" width="11" height="11" fill="#e74c3c"/>
  <rect x="332" y="116" width="11" height="11" fill="#e74c3c"/>
  <rect x="344" y="116" width="11" height="11" fill="#e74c3c"/>
  <rect x="356" y="116" width="11" height="11" fill="#e74c3c"/>
  <rect x="368" y="116" width="11" height="11" fill="#e74c3c"/>
  <rect x="380" y="116" width="11" height="11" fill="#e74c3c"/>
  <rect x="392" y="116" width="11" height="11" fill="#e74c3c"/>
  <rect x="20" y="128" width="11" height="11" fill="#e74c3c"/>
  <rect x="32" y="128" width="11" height="11" fill="#e74c3c"/>
  <rect x="44" y="128" width="11" height="11" fill="#e74c3c"/>
  <rect x="56" y="128" width="11" height="11" fill="#e74c3c"/>
  <rect x="68" y="128" width="11" height="11" fill="#e74c3c"/>
  <rect x="80" y="128" width="11" height="11" fill="#e74c3c"/>
  <rect x="92" y="128" width="11" height="11" fill="#e74c3c"/>
  <rect x="104" y="128" width="11" height="11" fill="#e74c3c"/>
  <rect x="116" y="128" width="11" height="11" fill="#e74c3c"/>
  <rect x="128" y="128" width="11" height="11" fill="#e74c3c"/>
  <rect x="140" y="128" width="11" height="11" fill="#e74c3c"/>
  <rect x="152" y="128" width="11" height="11" fill="#e74c3c"/>
  <rect x="164" y="128" width="11" height="11" fill="#e74c3c"/>
  <rect x="176" y="128" width="11" height="11" fill="#e74c3c"/>
  <rect x="188" y="128" width="11" height="11" fill="#e74c3c"/>
  <rect x="200" y="128" width="11" height="11" fill="#e74c3c"/>
  <rect x="212" y="128" width="11" height="11" fill="#3498db"/>
  <rect x="224" y="128" width="11" height="11" fill="#e74c3c"/>
  <rect x="236" y="128" width="11" height="11" fill="#e74c3c"/>
  <rect x="248" y="128" width="11" height="11" fill="#e74c3c"/>
  <rect x="260" y="128" width="11" height="11" fill="#e74c3c"/>
  <rect x="272" y="128" width="11" height="11" fill="#e74c3c"/>
  <rect x="284" y="128" width="11" height="11" fill="#e74c3c"/>
  <rect x="296" y="128" width="11" height="11" fill="#e74c3c"/>
  <rect x="308" y="128" width="11" height="11" fill="#e74c3c"/>
  <rect x="320" y="128" width="11" height="11" fill="#e74c3c"/>
  <rect x="332" y="128" width="11" height="11" fill="#e74c3c"/>
  <rect x="344" y="128" width="11" height="11" fill="#e74c3c"/>
  <rect x="356" y="128" width="11" height="11" fill="#e74c3c"/>
  <rect x="368" y="128" width="11" height="11" fill="#e74c3c"/>
  <rect x="380" y="128" width="11" height="11" fill="#e74c3c"/>
  <rect x="392" y="128" width="11" height="11" fill="#e74c3c"/>
  <rect x="20" y="140" width="11" height="11" fill="#e74c3c"/>
  <rect x="32" y="140" width="11" height="11" fill="#e74c3c"/>
  <rect x="44" y="140" width="11" height="11" fill="#e74c3c"/>
  <rect x="56" y="140" width="11" height="11" fill="#e74c3c"/>
  <rect x="68" y="140" width="11" height="11" fill="#e74c3c"/>
  <rect x="80" y="140" width="11" height="11" fill="#e74c3c"/>
  <rect x="92" y="140" width="11" height="11" fill="#e74c3c"/>
  <rect x="104" y="140" width="11" height="11" fill="#e74c3c"/>
  <rect x="116" y="140" width="11" height="11" fill="#e74c3c"/>
  <rect x="128" y="140" width="11" height="11" fill="#e74c3c"/>
  <rect x="140" y="140" width="11" height="11" fill="#e74c3c"/>
  <rect x="152" y="140" width="11" height="11" fill="#e74c3c"/>
  <rect x="164" y="140" width="11" height="11" fill="#e74c3c"/>
  <rect x="176" y="140" width="11" height="11" fill="#e74c3c"/>
  <rect x="188" y="140" width="11" height="11" fill="#e74c3c"/>
  <rect x="200" y="140" width="11" height="11" fill="#e74c3c"/>
  <rect x="212" y="140" width="11" height="11" fill="#e74c3c"/>
  <rect x="224" y="140" width="11" height="11" fill="#e74c3c"/>
  <rect x="236" y="140" width="11" height="11" fill="#e74c3c"/>
  <rect x="248" y="140" width="11" height="11" fill="#e74c3c"/>
  <rect x="260" y="140" width="11" height="11" fill="#e74c3c"/>
  <rect x="272" y="140" width="11" height="11" fill="#e74c3c"/>
  <rect x="284" y="140" width="11" height="11" fill="#e74c3c"/>
  <rect x="296" y="140" width="11" height="11" fill="#e74c3c"/>
  <rect x="308" y="140" width="11" height="11" fill="#e74c3c"/>
  <rect x="320" y="140" width="11" height="11" fill="#e74c3c"/>
  <rect x="332" y="140" width="11" height="11" fill="#e74c3c"/>
  <rect x="344" y="140" width="11" height="11" fill="#e74c3c"/>
  <rect x="356" y="140" width="11" height="11" fill="#e74c3c"/>
  <rect x="368" y="140" width="11" height="11" fill="#e74c3c"/>
  <rect x="380" y="140" width="11" height="11" fill="#e74c3c"/>
  <rect x="392" y="140" width="11" height="11" fill="#e74c3c"/>
  <rect x="20" y="152" width="11" height="11" fill="#e74c3c"/>
  <rect x="32" y="152" width="11" height="11" fill="#e74c3c"/>
  <rect x="44" y="152" width="11" height="11" fill="#e74c3c"/>
  <rect x="56" y="152" width="11" height="11" fill="#e74c3c"/>
  <rect x="68" y="152" width="11" height="11" fill="#e74c3c"/>
  <rect x="80" y="152" width="11" height="11" fill="#e74c3c"/>
  <rect x="92" y="152" width="11" height="11" fill="#e74c3c"/>
  <rect x="104" y="152" width="11" height="11" fill="#e74c3c"/>
  <rect x="116" y="152" width="11" height="11" fill="#e74c3c"/>
  <rect x="128" y="152" width="11" height="11" fill="#e74c3c"/>
  <rect x="140" y="152" width="11" height="11" fill="#e74c3c"/>
  <rect x="152" y="152" width="11" height="11" fill="#e74c3c"/>
  <rect x="164" y="152" width="11" height="11" fill="#e74c3c"/>
  <rect x="176" y="152" width="11" height="11" fill="#e74c3c"/>
  <rect x="188" y="152" width="11" height="11" fill="#e74c3c"/>
  <rect x="200" y="152" width="11" height="11" fill="#e74c3c"/>
  <rect x="212" y="152" width="11" height="11" fill="#3498db"/>
  <rect x="224" y="152" width="11" height="11" fill="#e74c3c"/>
  <rect x="236" y="152" width="11" height="11" fill="#e74c3c"/>
  <rect x="248" y="152" width="11" height="11" fill="#e74c3c"/>
  <rect x="260" y="152" width="11" height="11" fill="#e74c3c"/>
  <rect x="272" y="152" width="11" height="11" fill="#e74c3c"/>
  <rect x="284" y="152" width="11" height="11" fill="#e74c3c"/>
  <rect x="296" y="152" width="11" height="11" fill="#e74c3c"/>
  <rect x="308" y="152" width="11" height="11" fill="#e74c3c"/>
  <rect x="320" y="152" width="11" height="11" fill="#e74c3c"/>
  <rect x="332" y="152" width="11" height="11" fill="#e74c3c"/>
  <rect x="344" y="152" width="11" height="11" fill="#e74c3c"/>
  <rect x="356" y="152" width="11" height="11" fill="#e74c3c"/>
  <rect x="368" y="152" width="11" height="11" fill="#e74c3c"/>
  <rect x="380" y="152" width="11" height="11" fill="#e74c3c"/>
  <rect x="392" y="152" width="11" height="11" fill="#e74c3c"/>
  <rect x="20" y="164" width="11" height="11" fill="#e74c3c"/>
  <rect x="32" y="164" width="11" height="11" fill="#e74c3c"/>
  <rect x="44" y="164" width="11" height="11" fill="#e74c3c"/>
  <rect x="56" y="164" width="11" height="11" fill="#e74c3c"/>
  <rect x="68" y="164" width="11" height="11" fill="#e74c3c"/>
  <rect x="80" y="164" width="11" height="11" fill="#e74c3c"/>
  <rect x="92" y="164" width="11" height="11" fill="#e74c3c"/>
  <rect x="104" y="164" width="11" height="11" fill="#e74c3c"/>
  <rect x="116" y="164" width="11" height="11" fill="#e74c3c"/>
  <rect x="128" y="164" width="11" height="11" fill="#e74c3c"/>
  <rect x="140" y="164" width="11" height="11" fill="#e74c3c"/>
  <rect x="152" y="164" width="11" height="11" fill="#e74c3c"/>
  <rect x="164" y="164" width="11" height="11" fill="#e74c3c"/>
  <rect x="176" y="164" width="11" height="11" fill="#e74c3c"/>
  <rect x="188" y="164" width="11" height="11" fill="#e74c3c"/>
  <rect x="200" y="164" width="11" height="11" fill="#e74c3c"/>
  <rect x="212" y="164" width="11" height="11" fill="#e74c3c"/>
  <rect x="224" y="164" width="11" height="11" fill="#e74c3c"/>
  <rect x="236" y="164" width="11" height="11" fill="#e74c3c"/>
  <rect x="248" y="164" width="11" height="11" fill="#e74c3c"/>
  <rect x="260" y="164" width="11" height="11" fill="#e74c3c"/>
  <rect x="272" y="164" width="11" height="11" fill="#e74c3c"/>
  <rect x="284" y="164" width="11" height="11" fill="#e74c3c"/>
  <rect x="296" y="164" width="11" height="11" fill="#e74c3c"/>
  <rect x="308" y="164" width="11" height="11" fill="#e74c3c"/>
  <rect x="320" y="164" width="11" height="11" fill="#e74c3c"/>
  <rect x="332" y="164" width="11" height="11" fill="#e74c3c"/>
  <rect x="344" y="164" width="11" height="11" fill="#e74c3c"/>
  <rect x="356" y="164" width="11" height="11" fill="#e74c3c"/>
  <rect x="368" y="164" width="11" height="11" fill="#e74c3c"/>
  <rect x="380" y="164" width="11" height="11" fill="#e74c3c"/>
  <rect x="392" y="164" width="11" height="11" fill="#e74c3c"/>
  <rect x="20" y="176" width="11" height="11" fill="#e74c3c"/>
  <rect x="32" y="176" width="11" height="11" fill="#e74c3c"/>
  <rect x="44" y="176" width="11" height="11" fill="#e74c3c"/>
  <rect x="56" y="176" width="11" height="11" fill="#e74c3c"/>
  <rect x="68" y="176" width="11" height="11" fill="#e74c3c"/>
  <rect x="80" y="176" width="11" height="11" fill="#e74c3c"/>
  <rect x="92" y="176" width="11" height="11" fill="#e74c3c"/>
  <rect x="104" y="176" width="11" height="11" fill="#e74c3c"/>
  <rect x="116" y="176" width="11" height="11" fill="#e74c3c"/>
  <rect x="128" y="176" width="11" height="11" fill="#e74c3c"/>
  <rect x="140" y="176" width="11" height="11" fill="#e74c3c"/>
  <rect x="152" y="176" width="11" height="11" fill="#e74c3c"/>
  <rect x="164" y="176" width="11" height="11" fill="#e74c3c"/>
  <rect x="176" y="176" width="11" height="11" fill="#e74c3c"/>
  <rect x="188" y="176" width="11" height="11" fill="#e74c3c"/>
  <rect x="200" y="176" width="11" height="11" fill="#e74c3c"/>
  <rect x="212" y="176" width="11" height="11" fill="#3498db"/>
  <rect x="224" y="176" width="11" height="11" fill="#e74c3c"/>
  <rect x="236" y="176" width="11" height="11" fill="#e74c3c"/>
  <rect x="248" y="176" width="11" height="11" fill="#e74c3c"/>
  <rect x="260" y="176" width="11" height="11" fill="#e74c3c"/>
  <rect x="272" y="176" width="11" height="11" fill="#e74c3c"/>
  <rect x="284" y="176" width="11" height="11" fill="#e74c3c"/>
  <rect x="296" y="176" width="11" height="11" fill="#e74c3c"/>
  <rect x="308" y="176" width="11" height="11" fill="#e74c3c"/>
  <rect x="320" y="176" width="11" height="11" fill="#e74c3c"/>
  <rect x="332" y="176" width="11" height="11" fill="#e74c3c"/>
  <rect x="344" y="176" width="11" height="11" fill="#e74c3c"/>
  <rect x="356" y="176" width="11" height="11" fill="#e74c3c"/>
  <rect x="368" y="176" width="11" height="11" fill="#e74c3c"/>
  <rect x="380" y="176" width="11" height="11" fill="#e74c3c"/>
  <rect x="392" y="176" width="11" height="11" fill="#e74c3c"/>
  <rect x="20" y="188" width="11" height="11" fill="#e74c3c"/>
  <rect x="32" y="188" width="11" height="11" fill="#e74c3c"/>
  <rect x="44" y="188" width="11" height="11" fill="#e74c3c"/>
  <rect x="56" y="188" width="11" height="11" fill="#e74c3c"/>
  <rect x="68" y="188" width="11" height="11" fill="#e74c3c"/>
  <rect x="80" y="188" width="11" height="11" fill="#e74c3c"/>
  <rect x="92" y="188" width="11" height="11" fill="#e74c3c"/>
  <rect x="104" y="188" width="11" height="11" fill="#e74c3c"/>
  <rect x="116" y="188" width="11" height="11" fill="#e74c3c"/>
  <rect x="128" y="188" width="11" height="11" fill="#e74c3c"/>
  <rect x="140" y="188" width="11" height="11" fill="#e74c3c"/>
  <rect x="152" y="188" width="11" height="11" fill="#e74c3c"/>
  <rect x="164" y="188" width="11" height="11" fill="#e74c3c"/>
  <rect x="176" y="188" width="11" height="11" fill="#e74c3c"/>
  <rect x="188" y="188" width="11" height="11" fill="#e74c3c"/>
  <rect x="200" y="188" width="11" height="11" fill="#e74c3c"/>
  <rect x="212" y="188" width="11" height="11" fill="#e74c3c"/>
  <rect x="224" y="188" width="11" height="11" fill="#e74c3c"/>
  <rect x="236" y="188" width="11" height="11" fill="#e74c3c"/>
  <rect x="248" y="188" width="11" height="11" fill="#e74c3c"/>
  <rect x="260" y="188" width="11" height="11" fill="#e74c3c"/>
  <rect x="272" y="188" width="11" height="11" fill="#e74c3c"/>
  <rect x="284" y="188" width="11" height="11" fill="#e74c3c"/>
  <rect x="296" y="188" width="11" height="11" fill="#e74c3c"/>
  <rect x="308" y="188" width="11" height="11" fill="#e74c3c"/>
  <rect x="320" y="188" width="11" height="11" fill="#e74c3c"/>
  <rect x="332" y="188" width="11" height="11" fill="#e74c3c"/>
  <rect x="344" y="188" width="11" height="11" fill="#e74c3c"/>
  <rect x="356" y="188" width="11" height="11" fill="#e74c3c"/>
  <rect x="368" y="188" width="11" height="11" fill="#e74c3c"/>
  <rect x="380" y="188" width="11" height="11" fill="#e74c3c"/>
  <rect x="392" y="188" width="11" height="11" fill="#e74c3c"/>
  <rect x="20" y="200" width="11" height="11" fill="#e74c3c"/>
  <rect x="32" y="200" width="11" height="11" fill="#e74c3c"/>
  <rect x="44" y="200" width="11" height="11" fill="#e74c3c"/>
  <rect x="56" y="200" width="11" height="11" fill="#e74c3c"/>
  <rect x="68" y="200" width="11" height="11" fill="#e74c3c"/>
  <rect x="80" y="200" width="11" height="11" fill="#e74c3c"/>
  <rect x="92" y="200" width="11" height="11" fill="#e74c3c"/>
  <rect x="104" y="200" width="11" height="11" fill="#e74c3c"/>
  <rect x="116" y="200" width="11" height="11" fill="#e74c3c"/>
  <rect x="128" y="200" width="11" height="11" fill="#e74c3c"/>
  <rect x="140" y="200" width="11" height="11" fill="#e74c3c"/>
  <rect x="152" y="200" width="11" height="11" fill="#e74c3c"/>
  <rect x="164" y="200" width="11" height="11" fill="#e74c3c"/>
  <rect x="176" y="200" width="11" height="11" fill="#e74c3c"/>
  <rect x="188" y="200" width="11" height="11" fill="#e74c3c"/>
  <rect x="200" y="200" width="11" height="11" fill="#e74c3c"/>
  <rect x="212" y="200" width="11" height="11" fill="#3498db"/>
  <rect x="224" y="200" width="11" height="11" fill="#e74c3c"/>
  <rect x="236" y="200" width="11" height="11" fill="#e74c3c"/>
  <rect x="248" y="200" width="11" height="11" fill="#e74c3c"/>
  <rect x="260" y="200" width="11" height="11" fill="#e74c3c"/>
  <rect x="272" y="200" width="11" height="11" fill="#e74c3c"/>
  <rect x="284" y="200" width="11" height="11" fill="#e74c3c"/>
  <rect x="296" y="200" width="11" height="11" fill="#e74c3c"/>
  <rect x="308" y="200" width="11" height="11" fill="#e74c3c"/>
  <rect x="320" y="200" width="11" height="11" fill="#e74c3c"/>
  <rect x="332" y="200" width="11" height="11" fill="#e74c3c"/>
  <rect x="344" y="200" width="11" height="11" fill="#e74c3c"/>
  <rect x="356" y="200" width="11" height="11" fill="#e74c3c"/>
  <rect x="368" y="200" width="11" height="11" fill="#e74c3c"/>
  <rect x="380" y="200" width="11" height="11" fill="#e74c3c"/>
  <rect x="392" y="200" width="11" height="11" fill="#e74c3c"/>
  <text x="20" y="222" font-family="monospace" font-size="10">icount: 0 -> 101131604428464 (forward)</text>
  <text x="274" y="222" font-family="monospace" font-size="10" fill="#666">reverse -></text>
</svg>
