<?xml version="1.0" encoding="UTF-8"?>
<svg xmlns="http://www.w3.org/2000/svg" viewBox="0 0 100 254">
  <title>Code16K Frame (icount 500 - 1000)</title>
  <rect width="100" height="254" fill="white"/>
  <rect x="15" y="15" width="12" height="12" fill="#e74c3c"/>
  <rect x="16" y="16" width="10" height="10" fill="#2ecc71" opacity="0.5"/>
  <rect x="29" y="15" width="12" height="12" fill="#e74c3c"/>
  <rect x="32" y="18" width="6" height="6" fill="#3498db"/>
  <rect x="30" y="16" width="10" height="10" fill="#2ecc71" opacity="0.5"/>
  <rect x="43" y="15" width="12" height="12" fill="#e74c3c"/>
  <rect x="46" y="18" width="6" height="6" fill="#3498db"/>
  <rect x="44" y="16" width="10" height="10" fill="#2ecc71" opacity="0.5"/>
  <rect x="60" y="18" width="6" height="6" fill="#3498db"/>
  <rect x="58" y="16" width="10" height="10" fill="#2ecc71" opacity="0.5"/>
  <rect x="71" y="15" width="12" height="12" fill="#e74c3c"/>
  <rect x="74" y="18" width="6" height="6" fill="#3498db"/>
  <rect x="72" y="16" width="10" height="10" fill="#2ecc71" opacity="0.5"/>
  <rect x="15" y="29" width="12" height="12" fill="#e74c3c"/>
  <rect x="18" y="32" width="6" height="6" fill="#3498db"/>
  <rect x="16" y="30" width="10" height="10" fill="#2ecc71" opacity="0.5"/>
  <rect x="29" y="29" width="12" height="12" fill="#e74c3c"/>
  <rect x="32" y="32" width="6" height="6" fill="#3498db"/>
  <rect x="30" y="30" width="10" height="10" fill="#2ecc71" opacity="0.5"/>
  <rect x="43" y="29" width="12" height="12" fill="#e74c3c"/>
  <rect x="46" y="32" width="6" height="6" fill="#3498db"/>
  <rect x="44" y="30" width="10" height="10" fill="#2ecc71" opacity="0.5"/>
  <rect x="57" y="29" width="12" height="12" fill="#e74c3c"/>
  <rect x="60" y="32" width="6" height="6" fill="#3498db"/>
  <rect x="58" y="30" width="10" height="10" fill="#2ecc71" opacity="0.5"/>
  <rect x="71" y="29" width="12" height="12" fill="#e74c3c"/>
  <rect x="74" y="32" width="6" height="6" fill="#3498db"/>
  <rect x="72" y="30" width="10" height="10" fill="#2ecc71" opacity="0.5"/>
  <rect x="15" y="43" width="12" height="12" fill="#e74c3c"/>
  <rect x="18" y="46" width="6" height="6" fill="#3498db"/>
  <rect x="16" y="44" width="10" height="10" fill="#2ecc71" opacity="0.5"/>
  <rect x="29" y="43" width="12" height="12" fill="#e74c3c"/>
  <rect x="32" y="46" width="6" height="6" fill="#3498db"/>
  <rect x="30" y="44" width="10" height="10" fill="#2ecc71" opacity="0.5"/>
  <rect x="43" y="43" width="12" height="12" fill="#e74c3c"/>
  <rect x="44" y="44" width="10" height="10" fill="#2ecc71" opacity="0.5"/>
  <rect x="57" y="43" width="12" height="12" fill="#e74c3c"/>
  <rect x="60" y="46" width="6" height="6" fill="#3498db"/>
  <rect x="58" y="44" width="10" height="10" fill="#2ecc71" opacity="0.5"/>
  <rect x="71" y="43" width="12" height="12" fill="#e74c3c"/>
  <rect x="72" y="44" width="10" height="10" fill="#2ecc71" opacity="0.5"/>
  <rect x="15" y="57" width="12" height="12" fill="#e74c3c"/>
  <rect x="18" y="60" width="6" height="6" fill="#3498db"/>
  <rect x="16" y="58" width="10" height="10" fill="#2ecc71" opacity="0.5"/>
  <rect x="29" y="57" width="12" height="12" fill="#e74c3c"/>
  <rect x="30" y="58" width="10" height="10" fill="#2ecc71" opacity="0.5"/>
  <rect x="43" y="57" width="12" height="12" fill="#e74c3c"/>
  <rect x="46" y="60" width="6" height="6" fill="#3498db"/>
  <rect x="44" y="58" width="10" height="10" fill="#2ecc71" opacity="0.5"/>
  <rect x="57" y="57" width="12" height="12" fill="#e74c3c"/>
  <rect x="60" y="60" width="6" height="6" fill="#3498db"/>
  <rect x="58" y="58" width="10" height="10" fill="#2ecc71" opacity="0.5"/>
  <rect x="71" y="57" width="12" height="12" fill="#e74c3c"/>
  <rect x="74" y="60" width="6" height="6" fill="#3498db"/>
  <rect x="72" y="58" width="10" height="10" fill="#2ecc71" opacity="0.5"/>
  <rect x="15" y="71" width="12" height="12" fill="#e74c3c"/>
  <rect x="18" y="74" width="6" height="6" fill="#3498db"/>
  <rect x="16" y="72" width="10" height="10" fill="#2ecc71" opacity="0.5"/>
  <rect x="29" y="71" width="12" height="12" fill="#e74c3c"/>
  <rect x="32" y="74" width="6" height="6" fill="#3498db"/>
  <rect x="30" y="72" width="10" height="10" fill="#2ecc71" opacity="0.5"/>
  <rect x="43" y="71" width="12" height="12" fill="#e74c3c"/>
  <rect x="46" y="74" width="6" height="6" fill="#3498db"/>
  <rect x="44" y="72" width="10" height="10" fill="#2ecc71" opacity="0.5"/>
  <rect x="57" y="71" width="12" height="12" fill="#e74c3c"/>
  <rect x="60" y="74" width="6" height="6" fill="#3498db"/>
  <rect x="58" y="72" width="10" height="10" fill="#2ecc71" opacity="0.5"/>
  <rect x="71" y="71" width="12" height="12" fill="#e74c3c"/>
  <rect x="74" y="74" width="6" height="6" fill="#3498db"/>
  <rect x="72" y="72" width="10" height="10" fill="#2ecc71" opacity="0.5"/>
  <rect x="15" y="85" width="12" height="12" fill="#e74c3c"/>
  <rect x="18" y="88" width="6" height="6" fill="#3498db"/>
  <rect x="16" y="86" width="10" height="10" fill="#2ecc71" opacity="0.5"/>
  <rect x="29" y="85" width="12" height="12" fill="#e74c3c"/>
  <rect x="30" y="86" width="10" height="10" fill="#2ecc71" opacity="0.5"/>
  <rect x="43" y="85" width="12" height="12" fill="#e74c3c"/>
  <rect x="46" y="88" width="6" height="6" fill="#3498db"/>
  <rect x="44" y="86" width="10" height="10" fill="#2ecc71" opacity="0.5"/>
  <rect x="57" y="85" width="12" height="12" fill="#e74c3c"/>
  <rect x="60" y="88" width="6" height="6" fill="#3498db"/>
  <rect x="58" y="86" width="10" height="10" fill="#2ecc71" opacity="0.5"/>
  <rect x="71" y="85" width="12" height="12" fill="#e74c3c"/>
  <rect x="74" y="88" width="6" height="6" fill="#3498db"/>
  <rect x="72" y="86" width="10" height="10" fill="#2ecc71" opacity="0.5"/>
  <rect x="15" y="99" width="12" height="12" fill="#e74c3c"/>
  <rect x="16" y="100" width="10" height="10" fill="#2ecc71" opacity="0.5"/>
  <rect x="29" y="99" width="12" height="12" fill="#e74c3c"/>
  <rect x="32" y="102" width="6" height="6" fill="#3498db"/>
  <rect x="30" y="100" width="10" height="10" fill="#2ecc71" opacity="0.5"/>
  <rect x="43" y="99" width="12" height="12" fill="#e74c3c"/>
  <rect x="44" y="100" width="10" height="10" fill="#2ecc71" opacity="0.5"/>
  <rect x="57" y="99" width="12" height="12" fill="#e74c3c"/>
  <rect x="60" y="102" width="6" height="6" fill="#3498db"/>
  <rect x="58" y="100" width="10" height="10" fill="#2ecc71" opacity="0.5"/>
  <rect x="71" y="99" width="12" height="12" fill="#e74c3c"/>
  <rect x="74" y="102" width="6" height="6" fill="#3498db"/>
  <rect x="72" y="100" width="10" height="10" fill="#2ecc71" opacity="0.5"/>
  <rect x="15" y="113" width="12" height="12" fill="#e74c3c"/>
  <rect x="18" y="116" width="6" height="6" fill="#3498db"/>
  <rect x="16" y="114" width="10" height="10" fill="#2ecc71" opacity="0.5"/>
  <rect x="29" y="113" width="12" height="12" fill="#e74c3c"/>
  <rect x="32" y="116" width="6" height="6" fill="#3498db"/>
  <rect x="30" y="114" width="10" height="10" fill="#2ecc71" opacity="0.5"/>
  <rect x="43" y="113" width="12" height="12" fill="#e74c3c"/>
  <rect x="46" y="116" width="6" height="6" fill="#3498db"/>
  <rect x="44" y="114" width="10" height="10" fill="#2ecc71" opacity="0.5"/>
  <rect x="57" y="113" width="12" height="12" fill="#e74c3c"/>
  <rect x="60" y="116" width="6" height="6" fill="#3498db"/>
  <rect x="58" y="114" width="10" height="10" fill="#2ecc71" opacity="0.5"/>
  <rect x="71" y="113" width="12" height="12" fill="#e74c3c"/>
  <rect x="74" y="116" width="6" height="6" fill="#3498db"/>
  <rect x="72" y="114" width="10" height="10" fill="#2ecc71" opacity="0.5"/>
  <rect x="15" y="127" width="12" height="12" fill="#e74c3c"/>
  <rect x="18" y="130" width="6" height="6" fill="#3498db"/>
  <rect x="16" y="128" width="10" height="10" fill="#2ecc71" opacity="0.5"/>
  <rect x="29" y="127" width="12" height="12" fill="#e74c3c"/>
  <rect x="32" y="130" width="6" height="6" fill="#3498db"/>
  <rect x="30" y="128" width="10" height="10" fill="#2ecc71" opacity="0.5"/>
  <rect x="43" y="127" width="12" height="12" fill="#e74c3c"/>
  <rect x="46" y="130" width="6" height="6" fill="#3498db"/>
  <rect x="44" y="128" width="10" height="10" fill="#2ecc71" opacity="0.5"/>
  <rect x="57" y="127" width="12" height="12" fill="#e74c3c"/>
  <rect x="60" y="130" width="6" height="6" fill="#3498db"/>
  <rect x="58" y="128" width="10" height="10" fill="#2ecc71" opacity="0.5"/>
  <rect x="71" y="127" width="12" height="12" fill="#e74c3c"/>
  <rect x="72" y="128" width="10" height="10" fill="#2ecc71" opacity="0.5"/>
  <rect x="15" y="141" width="12" height="12" fill="#e74c3c"/>
  <rect x="18" y="144" width="6" height="6" fill="#3498db"/>
  <rect x="16" y="142" width="10" height="10" fill="#2ecc71" opacity="0.5"/>
  <rect x="29" y="141" width="12" height="12" fill="#e74c3c"/>
  <rect x="32" y="144" width="6" height="6" fill="#3498db"/>
  <rect x="30" y="142" width="10" height="10" fill="#2ecc71" opacity="0.5"/>
  <rect x="43" y="141" width="12" height="12" fill="#e74c3c"/>
  <rect x="46" y="144" width="6" height="6" fill="#3498db"/>
  <rect x="44" y="142" width="10" height="10" fill="#2ecc71" opacity="0.5"/>
  <rect x="57" y="141" width="12" height="12" fill="#e74c3c"/>
  <rect x="58" y="142" width="10" height="10" fill="#2ecc71" opacity="0.5"/>
  <rect x="71" y="141" width="12" height="12" fill="#e74c3c"/>
  <rect x="74" y="144" width="6" height="6" fill="#3498db"/>
  <rect x="72" y="142" width="10" height="10" fill="#2ecc71" opacity="0.5"/>
  <rect x="15" y="155" width="12" height="12" fill="#e74c3c"/>
  <rect x="18" y="158" width="6" height="6" fill="#3498db"/>
  <rect x="16" y="156" width="10" height="10" fill="#2ecc71" opacity="0.5"/>
  <rect x="29" y="155" width="12" height="12" fill="#e74c3c"/>
  <rect x="32" y="158" width="6" height="6" fill="#3498db"/>
  <rect x="30" y="156" width="10" height="10" fill="#2ecc71" opacity="0.5"/>
  <rect x="43" y="155" width="12" height="12" fill="#e74c3c"/>
  <rect x="46" y="158" width="6" height="6" fill="#3498db"/>
  <rect x="44" y="156" width="10" height="10" fill="#2ecc71" opacity="0.5"/>
  <rect x="57" y="155" width="12" height="12" fill="#e74c3c"/>
  <rect x="60" y="158" width="6" height="6" fill="#3498db"/>
  <rect x="58" y="156" width="10" height="10" fill="#2ecc71" opacity="0.5"/>
  <rect x="71" y="155" width="12" height="12" fill="#e74c3c"/>
  <rect x="74" y="158" width="6" height="6" fill="#3498db"/>
  <rect x="72" y="156" width="10" height="10" fill="#2ecc71" opacity="0.5"/>
  <rect x="15" y="169" width="12" height="12" fill="#e74c3c"/>
  <rect x="18" y="172" width="6" height="6" fill="#3498db"/>
  <rect x="16" y="170" width="10" height="10" fill="#2ecc71" opacity="0.5"/>
  <rect x="29" y="169" width="12" height="12" fill="#e74c3c"/>
  <rect x="32" y="172" width="6" height="6" fill="#3498db"/>
  <rect x="30" y="170" width="10" height="10" fill="#2ecc71" opacity="0.5"/>
  <rect x="43" y="169" width="12" height="12" fill="#e74c3c"/>
  <rect x="46" y="172" width="6" height="6" fill="#3498db"/>
  <rect x="44" y="170" width="10" height="10" fill="#2ecc71" opacity="0.5"/>
  <rect x="57" y="169" width="12" height="12" fill="#e74c3c"/>
  <rect x="58" y="170" width="10" height="10" fill="#2ecc71" opacity="0.5"/>
  <rect x="71" y="169" width="12" height="12" fill="#e74c3c"/>
  <rect x="74" y="172" width="6" height="6" fill="#3498db"/>
  <rect x="72" y="170" width="10" height="10" fill="#2ecc71" opacity="0.5"/>
  <rect x="15" y="183" width="12" height="12" fill="#e74c3c"/>
  <rect x="18" y="186" width="6" height="6" fill="#3498db"/>
  <rect x="16" y="184" width="10" height="10" fill="#2ecc71" opacity="0.5"/>
  <rect x="29" y="183" width="12" height="12" fill="#e74c3c"/>
  <rect x="32" y="186" width="6" height="6" fill="#3498db"/>
  <rect x="30" y="184" width="10" height="10" fill="#2ecc71" opacity="0.5"/>
  <rect x="43" y="183" width="12" height="12" fill="#e74c3c"/>
  <rect x="46" y="186" width="6" height="6" fill="#3498db"/>
  <rect x="44" y="184" width="10" height="10" fill="#2ecc71" opacity="0.5"/>
  <rect x="57" y="183" width="12" height="12" fill="#e74c3c"/>
  <rect x="60" y="186" width="6" height="6" fill="#3498db"/>
  <rect x="58" y="184" width="10" height="10" fill="#2ecc71" opacity="0.5"/>
  <rect x="71" y="183" width="12" height="12" fill="#e74c3c"/>
  <rect x="72" y="184" width="10" height="10" fill="#2ecc71" opacity="0.5"/>
  <rect x="15" y="197" width="12" height="12" fill="#e74c3c"/>
  <rect x="18" y="200" width="6" height="6" fill="#3498db"/>
  <rect x="16" y="198" width="10" height="10" fill="#2ecc71" opacity="0.5"/>
  <rect x="29" y="197" width="12" height="12" fill="#e74c3c"/>
  <rect x="32" y="200" width="6" height="6" fill="#3498db"/>
  <rect x="30" y="198" width="10" height="10" fill="#2ecc71" opacity="0.5"/>
  <rect x="46" y="200" width="6" height="6" fill="#3498db"/>
  <rect x="44" y="198" width="10" height="10" fill="#2ecc71" opacity="0.5"/>
  <rect x="57" y="197" width="12" height="12" fill="#e74c3c"/>
  <rect x="60" y="200" width="6" height="6" fill="#3498db"/>
  <rect x="58" y="198" width="10" height="10" fill="#2ecc71" opacity="0.5"/>
  <rect x="71" y="197" width="12" height="12" fill="#e74c3c"/>
  <rect x="74" y="200" width="6" height="6" fill="#3498db"/>
  <rect x="72" y="198" width="10" height="10" fill="#2ecc71" opacity="0.5"/>
  <rect x="15" y="211" width="12" height="12" fill="#e74c3c"/>
  <rect x="18" y="214" width="6" height="6" fill="#3498db"/>
  <rect x="16" y="212" width="10" height="10" fill="#2ecc71" opacity="0.5"/>
  <rect x="29" y="211" width="12" height="12" fill="#e74c3c"/>
  <rect x="32" y="214" width="6" height="6" fill="#3498db"/>
  <rect x="30" y="212" width="10" height="10" fill="#2ecc71" opacity="0.5"/>
  <rect x="43" y="211" width="12" height="12" fill="#e74c3c"/>
  <rect x="46" y="214" width="6" height="6" fill="#3498db"/>
  <rect x="44" y="212" width="10" height="10" fill="#2ecc71" opacity="0.5"/>
  <rect x="57" y="211" width="12" height="12" fill="#e74c3c"/>
  <rect x="60" y="214" width="6" height="6" fill="#3498db"/>
  <rect x="58" y="212" width="10" height="10" fill="#2ecc71" opacity="0.5"/>
  <rect x="71" y="211" width="12" height="12" fill="#e74c3c"/>
  <rect x="74" y="214" width="6" height="6" fill="#3498db"/>
  <rect x="72" y="212" width="10" height="10" fill="#2ecc71" opacity="0.5"/>
  <rect x="15" y="225" width="12" height="12" fill="#e74c3c"/>
  <rect x="18" y="228" width="6" height="6" fill="#3498db"/>
  <rect x="16" y="226" width="10" height="10" fill="#2ecc71" opacity="0.5"/>
  <rect x="29" y="225" width="12" height="12" fill="#e74c3c"/>
  <rect x="30" y="226" width="10" height="10" fill="#2ecc71" opacity="0.5"/>
  <rect x="43" y="225" width="12" height="12" fill="#e74c3c"/>
  <rect x="46" y="228" width="6" height="6" fill="#3498db"/>
  <rect x="44" y="226" width="10" height="10" fill="#2ecc71" opacity="0.5"/>
  <rect x="57" y="225" width="12" height="12" fill="#e74c3c"/>
  <rect x="58" y="226" width="10" height="10" fill="#2ecc71" opacity="0.5"/>
  <rect x="71" y="225" width="12" height="12" fill="#e74c3c"/>
  <rect x="74" y="228" width="6" height="6" fill="#3498db"/>
  <rect x="72" y="226" width="10" height="10" fill="#2ecc71" opacity="0.5"/>
  <g font-family="monospace" font-size="8" fill="#666">
    <text x="4" y="23">0</text>
    <text x="4" y="37">1</text>
    <text x="4" y="51">2</text>
    <text x="4" y="65">3</text>
    <text x="4" y="79">4</text>
    <text x="4" y="93">5</text>
    <text x="4" y="107">6</text>
    <text x="4" y="121">7</text>
    <text x="4" y="135">8</text>
    <text x="4" y="149">9</text>
    <text x="4" y="163">10</text>
    <text x="4" y="177">11</text>
    <text x="4" y="191">12</text>
    <text x="4" y="205">13</text>
    <text x="4" y="219">14</text>
    <text x="4" y="233">15</text>
  </g>
</svg>
